<?xml version="1.0" encoding="UTF-8" standalone="no"?>
<!-- Created with Inkscape (http://www.inkscape.org/) -->

<svg
   xmlns:dc="http://purl.org/dc/elements/1.1/"
   xmlns:cc="http://creativecommons.org/ns#"
   xmlns:rdf="http://www.w3.org/1999/02/22-rdf-syntax-ns#"
   xmlns:svg="http://www.w3.org/2000/svg"
   xmlns="http://www.w3.org/2000/svg"
   xmlns:sodipodi="http://sodipodi.sourceforge.net/DTD/sodipodi-0.dtd"
   xmlns:inkscape="http://www.inkscape.org/namespaces/inkscape"
   sodipodi:docname="Bogen.svg"
   inkscape:version="0.48.4 r9939"
   version="1.1"
   id="svg2"
   height="64"
   width="64">
  <sodipodi:namedview
     id="base"
     pagecolor="#ffffff"
     bordercolor="#666666"
     borderopacity="1.0"
     inkscape:pageopacity="0.0"
     inkscape:pageshadow="2"
     inkscape:zoom="5.6"
     inkscape:cx="49.575276"
     inkscape:cy="12.581212"
     inkscape:document-units="px"
     inkscape:current-layer="layer1"
     showgrid="false"
     objecttolerance="10000"
     guidetolerance="10000"
     gridtolerance="10000"
     inkscape:window-width="1600"
     inkscape:window-height="834"
     inkscape:window-x="0"
     inkscape:window-y="27"
     inkscape:window-maximized="1"
     inkscape:snap-object-midpoints="false"
     inkscape:snap-midpoints="true"
     inkscape:snap-global="false">
    <inkscape:grid
       spacingy="4px"
       spacingx="4px"
       snapvisiblegridlinesonly="true"
       enabled="true"
       visible="true"
       empspacing="5"
       id="grid2985"
       type="xygrid" />
  </sodipodi:namedview>
  <defs
     id="defs4" />
  <metadata
     id="metadata7">
    <rdf:RDF>
      <cc:Work
         rdf:about="">
        <dc:format>image/svg+xml</dc:format>
        <dc:type
           rdf:resource="http://purl.org/dc/dcmitype/StillImage" />
        <dc:title></dc:title>
      </cc:Work>
    </rdf:RDF>
  </metadata>
  <g
     transform="translate(0,-988.36217)"
     id="layer1"
     inkscape:groupmode="layer"
     inkscape:label="Ebene 1">
    <rect
       rx="0"
       transform="translate(0,988.36217)"
       y="0"
       x="0"
       height="64"
       width="64"
       id="rect3767"
       style="fill:#f2f2f2;fill-opacity:1;fill-rule:evenodd;stroke:#b3b3b3;stroke-width:0.25000000000000000;stroke-linecap:square;stroke-linejoin:miter;stroke-miterlimit:0;stroke-opacity:1;stroke-dasharray:none" />
    <g
       id="g4861"
       transform="matrix(1.516035,0,0,1.516035,-15.958054,-537.1621)">
      <path
         id="path3773-9-9"
         d="m 24.175004,-13.705499 c -1.868877,0.01403 -3.723864,1.044113 -4.168822,2.376827 -0.475738,1.4249027 0.82375,2.6418697 2.933389,2.6263603 2.109916,-0.015511 4.016881,-1.2563333 4.244412,-2.6797183 0.212807,-1.331274 -1.139886,-2.3375 -3.008979,-2.323469 0,0 0,0 0,0"
         style="fill:#aaaaff;fill-opacity:1;fill-rule:evenodd;stroke:#000000;stroke-width:0.25;stroke-linecap:square;stroke-linejoin:miter;stroke-miterlimit:0;stroke-opacity:1"
         transform="translate(0,1028.3622)"
         inkscape:connector-curvature="0" />
      <path
         id="path3773"
         d="m 41.104381,26.167451 c -1.870838,0.01404 -3.283492,1.041355 -3.147691,2.370467 0.145201,1.421106 1.982523,2.634825 4.094663,2.619297 2.112417,-0.01553 3.485101,-1.25313 3.091131,-2.672714 -0.368461,-1.327669 -2.167047,-2.331095 -4.038103,-2.31705 0,0 0,0 0,0"
         style="fill:#aaaaff;fill-opacity:1;fill-rule:evenodd;stroke:#000000;stroke-width:0.25;stroke-linecap:square;stroke-linejoin:miter;stroke-miterlimit:0;stroke-opacity:1"
         transform="translate(0,988.36217)"
         inkscape:connector-curvature="0" />
      <path
         id="path3775"
         d="m 60.346253,1.7999668 c -2.614957,0.018374 -5.407559,2.0492131 -6.309905,4.7518711 -0.993221,2.974839 0.647314,5.5987391 3.759192,5.5778681 3.112479,-0.02088 6.057871,-2.6764157 6.532995,-5.648685 0.431639,-2.7002404 -1.366901,-4.6994315 -3.982282,-4.6810542 0,0 0,0 0,0"
         style="fill:#aaaaff;fill-opacity:1;fill-rule:evenodd;stroke:#000000;stroke-width:0.25;stroke-linecap:square;stroke-linejoin:miter;stroke-miterlimit:0;stroke-opacity:1"
         transform="translate(-40,1028.3622)"
         inkscape:connector-curvature="0" />
      <path
         id="path3773-9"
         d="m 84.039576,41.633513 c -2.618801,0.0184 -4.535942,2.04462 -4.260417,4.741228 0.303295,2.968407 3.099203,5.586767 6.216525,5.565859 3.117925,-0.02091 4.915194,-2.670962 4.092103,-5.636789 -0.747702,-2.694181 -3.428986,-4.688703 -6.048211,-4.670298 0,0 0,0 0,0"
         style="fill:#aaaaff;fill-opacity:1;fill-rule:evenodd;stroke:#000000;stroke-width:0.25;stroke-linecap:square;stroke-linejoin:miter;stroke-miterlimit:0;stroke-opacity:1"
         transform="translate(-40,988.36217)"
         inkscape:connector-curvature="0" />
      <path
         id="rect4857"
         d="m 44.93265,46.339282 c 0,0 -3.383463,-17.828069 -3.383463,-17.828069 0,0 -17.954504,0.133469 -17.954504,0.133469 0,0 -4.413064,17.871783 -4.413064,17.871783 0,0 25.751031,-0.177183 25.751031,-0.177183"
         style="fill:#8080ff;fill-opacity:1;stroke:#000000;stroke-width:0.64399999;stroke-miterlimit:2;stroke-opacity:1"
         transform="translate(0,988.36217)"
         inkscape:connector-curvature="0" />
    </g>
  </g>
</svg>
