<?xml version="1.0" encoding="UTF-8" standalone="no"?>
<!-- Created with Inkscape (http://www.inkscape.org/) -->

<svg
   xmlns:osb="http://www.openswatchbook.org/uri/2009/osb"
   xmlns:dc="http://purl.org/dc/elements/1.1/"
   xmlns:cc="http://creativecommons.org/ns#"
   xmlns:rdf="http://www.w3.org/1999/02/22-rdf-syntax-ns#"
   xmlns:svg="http://www.w3.org/2000/svg"
   xmlns="http://www.w3.org/2000/svg"
   xmlns:sodipodi="http://sodipodi.sourceforge.net/DTD/sodipodi-0.dtd"
   xmlns:inkscape="http://www.inkscape.org/namespaces/inkscape"
   width="64"
   height="64"
   id="svg2"
   version="1.1"
   inkscape:version="0.48.4 r9939"
   sodipodi:docname="cad_air_ductendplate.svg">
  <defs
     id="defs4">
    <linearGradient
       id="linearGradient7917"
       osb:paint="solid">
      <stop
         style="stop-color:#0000ff;stop-opacity:1;"
         offset="0"
         id="stop7919" />
    </linearGradient>
  </defs>
  <sodipodi:namedview
     id="base"
     pagecolor="#ffffff"
     bordercolor="#666666"
     borderopacity="1.0"
     inkscape:pageopacity="0.0"
     inkscape:pageshadow="2"
     inkscape:zoom="11.2"
     inkscape:cx="24.059294"
     inkscape:cy="33.984499"
     inkscape:document-units="px"
     inkscape:current-layer="layer1"
     showgrid="true"
     objecttolerance="10000"
     guidetolerance="10000"
     gridtolerance="10000"
     inkscape:window-width="1920"
     inkscape:window-height="1114"
     inkscape:window-x="-4"
     inkscape:window-y="-4"
     inkscape:window-maximized="1"
     inkscape:snap-grids="true">
    <inkscape:grid
       type="xygrid"
       id="grid2985"
       empspacing="5"
       visible="true"
       enabled="true"
       snapvisiblegridlinesonly="true"
       spacingx="4px"
       spacingy="4px" />
  </sodipodi:namedview>
  <metadata
     id="metadata7">
    <rdf:RDF>
      <cc:Work
         rdf:about="">
        <dc:format>image/svg+xml</dc:format>
        <dc:type
           rdf:resource="http://purl.org/dc/dcmitype/StillImage" />
        <dc:title></dc:title>
      </cc:Work>
    </rdf:RDF>
  </metadata>
  <g
     inkscape:label="Ebene 1"
     inkscape:groupmode="layer"
     id="layer1"
     transform="translate(0,-988.36217)">
    <rect
       style="fill:#f2f2f2;fill-opacity:1;fill-rule:evenodd;stroke:#b3b3b3;stroke-width:0.25000000000000000;stroke-linecap:square;stroke-linejoin:miter;stroke-miterlimit:0;stroke-opacity:1;stroke-dasharray:none"
       id="rect3767"
       width="64"
       height="64"
       x="0"
       y="0"
       rx="0"
       transform="translate(0,988.36217)" />
    <path
       style="fill:none;stroke:#000082;stroke-width:2;stroke-linecap:butt;stroke-linejoin:miter;stroke-miterlimit:4;stroke-opacity:1;stroke-dasharray:none"
       d="m 43.214286,992.36217 0,56.00003"
       id="path9420"
       inkscape:connector-curvature="0" />
    <path
       style="fill:none;stroke:#000082;stroke-width:0.71174359px;stroke-linecap:butt;stroke-linejoin:miter;stroke-opacity:1"
       d="m 15.092575,1044.3622 28.368422,0"
       id="path9422"
       inkscape:connector-curvature="0" />
    <path
       style="fill:none;stroke:#000082;stroke-width:0.711061px;stroke-linecap:butt;stroke-linejoin:miter;stroke-opacity:1"
       d="m 15.164412,996.36217 c 2.022431,0 28.314034,0 28.314034,0"
       id="path9424"
       inkscape:connector-curvature="0" />
    <path
       style="fill:none;stroke:#000082;stroke-width:0.5;stroke-linecap:butt;stroke-linejoin:miter;stroke-opacity:1;stroke-miterlimit:4;stroke-dasharray:none"
       d="m 16,8 c -0.244048,0.095238 -0.591846,0.064476 -0.732143,0.2857143 -0.09294,0.1465562 0.171594,0.3020344 0.267857,0.4464286 0.02335,0.035021 0.07046,0.05164 0.08929,0.089286 0.01331,0.02662 -0.01651,0.064522 0,0.089286 0.04669,0.070042 0.131877,0.1085299 0.178571,0.1785714 0.01651,0.024763 -0.01331,0.062666 0,0.089286 0.01882,0.037646 0.07046,0.05164 0.08929,0.089286 0.02662,0.05324 -0.04209,0.1364818 0,0.1785715 0.02105,0.021045 0.06824,-0.021045 0.08929,0 0.02105,0.021045 -0.02105,0.068241 0,0.089286 0.02105,0.021045 0.06824,-0.021045 0.08929,0 0.02104,0.021045 -0.01331,0.062666 0,0.089286 0.296123,0.2961234 -0.04209,-0.084179 0.08929,0.1785714 0.0341,0.068204 0.247704,0.2073978 0.267857,0.2678578 0.01882,0.05647 -0.01882,0.122102 0,0.178571 0.01331,0.03993 0.07046,0.05164 0.08929,0.08929 0.01331,0.02662 0,0.05952 0,0.08929 0.02976,0.02976 0.07046,0.05164 0.08929,0.08929 0.01331,0.02662 -0.01331,0.06267 0,0.08929 0.01882,0.03765 0.07046,0.05164 0.08929,0.08929 0.02662,0.05324 -0.02662,0.125331 0,0.178571 0.01882,0.03765 0.07046,0.05164 0.08929,0.08929 0.03571,0.07143 -0.03571,0.196428 0,0.267857 0.01882,0.03765 0.07046,0.05164 0.08929,0.08929 0.02422,0.04844 -0.02443,0.332712 0,0.357142 0.02105,0.02105 0.06824,-0.02104 0.08929,0 0.02104,0.02105 0,0.05952 0,0.08929 0,0.02976 0,0.05952 0,0.08929 0,0.357143 0,0.714286 0,1.071428 0,0.208334 0,0.416667 0,0.625 0,0.04021 0.01359,0.240685 0,0.267858 -0.01882,0.03765 -0.07598,0.04936 -0.08929,0.08929 0,0.406454 0.04209,0.0051 -0.08929,0.267857 -0.02422,0.04844 0.02443,0.332713 0,0.357143 -0.02104,0.02104 -0.06824,-0.02105 -0.08929,0 -0.04209,0.04209 0.04209,0.136482 0,0.178572 -0.02104,0.02105 -0.06824,-0.02104 -0.08929,0 -0.01386,0.01386 0.01158,0.233114 0,0.267857 -0.02105,0.06313 -0.06824,0.115437 -0.08929,0.178571 -0.0094,0.02823 0.02105,0.06824 0,0.08929 -0.02105,0.02105 -0.06824,-0.02105 -0.08929,0 -0.04209,0.04209 0.02662,0.125332 0,0.178571 -0.296123,0.296124 0.04209,-0.08418 -0.08929,0.178572 -0.01882,0.03765 -0.07046,0.05164 -0.08929,0.08929 -0.01331,0.02662 0.02105,0.06824 0,0.08929 -0.02105,0.02104 -0.06824,-0.02105 -0.08929,0 -0.04209,0.04209 0.01882,0.122102 0,0.178572 -0.02976,0.05952 -0.05952,0.119047 -0.08929,0.178571 -0.02976,0 -0.06824,-0.02105 -0.08929,0 -0.02105,0.02105 0.01331,0.06267 0,0.08929 -0.01882,0.03765 -0.07046,0.05164 -0.08929,0.08929 -0.01331,0.02662 0.01331,0.06267 0,0.08929 -0.01882,0.03765 -0.07046,0.05164 -0.08929,0.08929 0,0.238095 0.02976,-0.02976 -0.08929,0.08929 -0.02104,0.02104 0.02105,0.06824 0,0.08929 -0.02104,0.02104 -0.06824,-0.02104 -0.08929,0 -0.04209,0.04209 0.04209,0.136482 0,0.178572 -0.184735,0.184735 0.0072,-0.2823 -0.178571,0.08929 -0.01331,0.02662 0.01331,0.06267 0,0.08929 -0.01882,0.03765 -0.07046,0.05164 -0.08929,0.08929 -0.01331,0.02662 0.02104,0.06824 0,0.08929 -0.02105,0.02104 -0.06824,-0.02105 -0.08929,0 -0.04209,0.04209 0.04209,0.136481 0,0.178571 -0.02104,0.02105 -0.06267,-0.01331 -0.08929,0 -0.03765,0.01882 -0.05952,0.05952 -0.08929,0.08929 -0.02976,0.02976 -0.07046,0.05164 -0.08929,0.08929 -0.01331,0.02662 0.02105,0.06824 0,0.08929 -0.02105,0.02105 -0.06824,-0.02104 -0.08929,0 -0.02105,0.02105 0.01331,0.06267 0,0.08929 -0.01882,0.03765 -0.07046,0.05164 -0.08929,0.08929 -0.01331,0.02662 0,0.05952 0,0.08929 -0.02976,0.02976 -0.07046,0.05164 -0.08929,0.08929 -0.01331,0.02662 0.02104,0.06824 0,0.08929 -0.02105,0.02105 -0.06824,-0.02105 -0.08929,0 -0.04209,0.04209 0.02662,0.125332 0,0.178571 -0.01882,0.03765 -0.07046,0.05164 -0.08929,0.08929 -0.01331,0.02662 0.01331,0.06267 0,0.08929 -0.01882,0.03765 -0.07046,0.05164 -0.08929,0.08929 -0.02379,0.04757 0.02379,0.130997 0,0.178572 -0.01882,0.03765 -0.07046,0.05164 -0.08929,0.08929 -0.02662,0.05324 0.02662,0.125331 0,0.178571 -0.01882,0.03765 -0.07046,0.05164 -0.08929,0.08929 -0.02816,0.05633 0.02816,0.390101 0,0.446428 -0.01882,0.03765 -0.07046,0.05164 -0.08929,0.08929 -0.01278,0.02555 0,0.398731 0,0.446429 0,0.04669 -0.01174,0.333666 0,0.357142 0.01882,0.03765 0.07046,0.05164 0.08929,0.08929 0.02662,0.05324 -0.02662,0.125332 0,0.178572 0.01882,0.03765 0.07046,0.05164 0.08929,0.08929 0.01331,0.02662 -0.01331,0.06267 0,0.08929 0.204313,0.408626 -0.03701,-0.378876 0.178571,0.267857 0.0094,0.02824 0,0.05952 0,0.08929 0.02976,0.02976 0.07046,0.05164 0.08929,0.08929 0.01331,0.02662 -0.01331,0.06267 0,0.08929 0.01882,0.03765 0.07046,0.05164 0.08929,0.08929 0.01331,0.02662 -0.01331,0.06267 0,0.08929 0.01882,0.03765 0.07046,0.05164 0.08929,0.08929 0.01331,0.02662 -0.02105,0.06824 0,0.08929 0.02104,0.02105 0.06824,-0.02105 0.08929,0 0.02104,0.02105 -0.02105,0.06824 0,0.08929 0.02104,0.02105 0.06824,-0.02105 0.08929,0 0.04209,0.04209 -0.02662,0.125332 0,0.178571 0.01882,0.03765 0.06594,0.05427 0.08929,0.08929 0.03692,0.05537 0.05237,0.123199 0.08929,0.178571 0.04669,0.07004 0.140926,0.10328 0.178572,0.178572 0.01331,0.02662 -0.01331,0.06267 0,0.08929 0.296123,0.296123 -0.04209,-0.08418 0.08929,0.178571 0.01882,0.03765 0.07046,0.05164 0.08929,0.08929 0.01331,0.02662 -0.01331,0.06267 0,0.08929 0.03765,0.07529 0.140926,0.10328 0.178572,0.178572 0.01331,0.02662 -0.01331,0.06267 0,0.08929 0.01882,0.03765 0.06594,0.05427 0.08929,0.08929 0.03692,0.05537 0.05237,0.123199 0.08929,0.178572 0.148062,0.222092 0.02052,0.01026 0.178572,0.08929 0.03765,0.01882 0.05164,0.07046 0.08929,0.08929 0.02662,0.01331 0.06824,-0.02105 0.08929,0 0.02105,0.02105 -0.01331,0.06267 0,0.08929 0.03765,0.07529 0.140925,0.103279 0.178571,0.178571 0.01331,0.02662 -0.02104,0.06824 0,0.08929 0.02104,0.02105 0.06824,-0.02105 0.08929,0 0.02105,0.02105 -0.02105,0.06824 0,0.08929 0.02105,0.02104 0.05952,0 0.08929,0 0.02976,0.02976 0.06594,0.05426 0.08929,0.08929 0.03692,0.05537 0.06824,0.115437 0.08929,0.178572 0.0094,0.02823 -0.02104,0.06824 0,0.08929 0.02105,0.02104 0.06824,-0.02104 0.08929,0 0.02105,0.02104 -0.02105,0.06824 0,0.08929 0.02105,0.02105 0.06824,-0.02104 0.08929,0 0.04209,0.04209 -0.04209,0.136482 0,0.178572 0.184735,0.184735 -0.0072,-0.2823 0.178571,0.08929 0.01331,0.02662 -0.02105,0.06824 0,0.08929 0.02105,0.02105 0.06824,-0.02105 0.08929,0 0.02105,0.02105 -0.01651,0.06452 0,0.08929 0.04669,0.07004 0.131877,0.10853 0.178571,0.178571 0.01651,0.02476 -0.02104,0.06824 0,0.08929 0.02105,0.02105 0.06824,-0.02105 0.08929,0 0.04209,0.04209 -0.04209,0.136482 0,0.178571 0.02105,0.02104 0.06824,-0.02104 0.08929,0 0.02104,0.02104 -0.01331,0.06267 0,0.08929 0.296123,0.296124 -0.04209,-0.08418 0.08929,0.178572 0.01882,0.03765 0.07046,0.05164 0.08929,0.08929 0.01331,0.02662 -0.01331,0.06267 0,0.08929 0.204313,0.408626 -0.03701,-0.378876 0.178572,0.267857 0.0094,0.02824 -0.01331,0.06267 0,0.08929 0.01882,0.03765 0.07046,0.05164 0.08929,0.08929 0.02662,0.05324 -0.02662,0.125331 0,0.178571 0.01882,0.03765 0.07046,0.05164 0.08929,0.08929 0.02662,0.05324 -0.04209,0.136481 0,0.178571 0.02105,0.02105 0.06824,-0.02105 0.08929,0 0.01909,0.01909 -0.01641,0.307917 0,0.357143 0.02104,0.06313 0.06824,0.115437 0.08929,0.178571 0.0094,0.02823 -0.01331,0.06267 0,0.08929 0.01882,0.03765 0.07046,0.05164 0.08929,0.08929 0.02806,0.05612 -0.02806,0.301025 0,0.357143 0.01882,0.03765 0.07046,0.05164 0.08929,0.08929 0.01331,0.02662 0,0.05952 0,0.08929 0,0.02976 0,0.05952 0,0.08929 0,0.148809 0,0.297619 0,0.446428 0,0.208334 0,0.416667 0,0.625 0,0.02122 0.01001,0.337132 0,0.357143 -0.296124,0.296124 0.04209,-0.08418 -0.08929,0.178572 -0.01882,0.03765 -0.07046,0.05164 -0.08929,0.08929 -0.01331,0.02662 0.01331,0.06267 0,0.08929 -0.03765,0.07529 -0.140925,0.103279 -0.178571,0.178572 -0.01331,0.02662 0.01331,0.06267 0,0.08929 -0.01882,0.03765 -0.07046,0.05164 -0.08929,0.08929 -0.01331,0.02662 0.02105,0.06824 0,0.08929 -0.02104,0.02104 -0.06824,-0.02105 -0.08929,0 -0.02104,0.02104 0.0094,0.06105 0,0.08929 -0.02104,0.06313 -0.04223,0.131514 -0.08929,0.178572 -0.02105,0.02105 -0.06824,-0.02105 -0.08929,0 -0.184735,0.184735 0.2823,-0.0072 -0.08929,0.178571 -0.02662,0.01331 -0.06824,-0.02104 -0.08929,0 -0.02105,0.02105 0.01331,0.06267 0,0.08929 -0.01882,0.03765 -0.07046,0.05164 -0.08929,0.08929 -0.01331,0.02662 0.02105,0.06824 0,0.08929 -0.02105,0.02104 -0.06824,-0.02104 -0.08929,0 -0.02104,0.02104 0.01331,0.06267 0,0.08929 -0.01882,0.03765 -0.07046,0.05164 -0.08929,0.08929 -0.01331,0.02662 0,0.05952 0,0.08929 -0.02976,0.02976 -0.07046,0.05164 -0.08929,0.08929 -0.01331,0.02662 0.02105,0.06824 0,0.08929 -0.02105,0.02105 -0.06267,-0.01331 -0.08929,0 -0.197415,0.09871 -0.02771,0.05541 -0.08929,0.178571 -0.04393,0.08786 -0.313213,0.269284 -0.357142,0.357143 -0.01331,0.02662 0.02104,0.06824 0,0.08929 -0.02104,0.02105 -0.06267,-0.01331 -0.08929,0 -0.371586,0.185793 0.09545,-0.0062 -0.08929,0.178571 -0.02105,0.02105 -0.06824,-0.02104 -0.08929,0 -0.02104,0.02105 0.01331,0.06267 0,0.08929 -0.01882,0.03765 -0.07046,0.05164 -0.08929,0.08929 -0.01331,0.02662 0,0.05952 0,0.08929 -0.02976,0.05952 -0.05237,0.123198 -0.08929,0.178571 -0.04669,0.07004 -0.140925,0.103279 -0.178571,0.178571 -0.01331,0.02662 0.01331,0.06267 0,0.08929 -0.01882,0.03765 -0.07046,0.05164 -0.08929,0.08929 -0.01331,0.02662 0.02105,0.06824 0,0.08929 -0.02105,0.02104 -0.06824,-0.02105 -0.08929,0 -0.02104,0.02104 0.01331,0.06266 0,0.08928 -0.01882,0.03765 -0.07046,0.05164 -0.08929,0.08929 -0.01331,0.02662 0.02105,0.06824 0,0.08929 -0.02104,0.02105 -0.06824,-0.02105 -0.08929,0 -0.02104,0.02105 0.01331,0.06267 0,0.08928 -0.05357,0.107143 -0.214286,0.160715 -0.267857,0.267858 -0.02662,0.05324 0.04209,0.136481 0,0.178571 -0.02105,0.02105 -0.06824,-0.02105 -0.08929,0 -0.02996,0.02996 0.02996,0.148611 0,0.178571 -0.02105,0.02105 -0.06824,-0.02104 -0.08929,0 -0.02104,0.02105 0.01331,0.06267 0,0.08929 -0.01882,0.03765 -0.07046,0.05164 -0.08929,0.08929 -0.02662,0.05324 0.02662,0.125332 0,0.178571 -0.01882,0.03765 -0.07046,0.05164 -0.08929,0.08929 -0.01331,0.02662 0.0094,0.06105 0,0.08929 -0.215578,0.646733 0.02574,-0.140769 -0.178572,0.267857 -0.01331,0.02662 0.01331,0.06267 0,0.08929 -0.06051,0.121018 -0.118062,0.05755 -0.178571,0.178571 -0.03571,0.07143 0.03571,0.196429 0,0.267857 -0.01882,0.03765 -0.07046,0.05164 -0.08929,0.08929 -0.01357,0.02715 0,0.295489 0,0.357143 0,0.209391 0.02105,-0.04209 -0.08929,0.178571 -0.01331,0.02662 0,0.05952 0,0.08929 0,0.02976 0,0.05952 0,0.08929 0,0.148809 0,0.297619 0,0.446428 0,0.02976 0.01331,0.06267 0,0.08929 -0.01882,0.03765 -0.07046,0.05164 -0.08929,0.08929 -0.01174,0.02348 0,0.310453 0,0.357142 0,0.04021 -0.01359,0.240685 0,0.267858 0.01882,0.03765 0.07046,0.05164 0.08929,0.08928 0.029,0.05801 -0.029,0.477706 0,0.535715 0.01882,0.03765 0.07046,0.05164 0.08929,0.08928 0.0177,0.0354 -0.01825,0.249604 0,0.267857 0.02105,0.02105 0.06824,-0.02104 0.08929,0 0.04464,0.04464 -0.04464,0.223215 0,0.267858 0.02104,0.02104 0.06824,-0.02105 0.08929,0 8.5e-5,8.5e-5 -1.35e-4,0.267452 0,0.267857 0.01331,0.03993 0.07046,0.05164 0.08929,0.08928 0.02662,0.05324 -0.02662,0.125332 0,0.178572 0.01882,0.03765 0.07046,0.05164 0.08929,0.08929 0.0177,0.0354 -0.01825,0.249603 0,0.267857 0.02105,0.02105 0.06824,-0.02105 0.08929,0 0.02105,0.02105 -0.02104,0.06824 0,0.08928 0.02105,0.02105 0.06824,-0.02104 0.08929,0 0.04209,0.04209 -0.02662,0.125332 0,0.178572 0.01882,0.03765 0.07046,0.05164 0.08929,0.08929 0.01331,0.02662 -0.01331,0.06266 0,0.08928 0.01882,0.03765 0.06594,0.05427 0.08929,0.08929 0.03691,0.05537 0.05237,0.123199 0.08929,0.178571 0.02335,0.03502 0.07046,0.05164 0.08929,0.08929 0.02662,0.05324 -0.04209,0.136482 0,0.178572 0.02104,0.02104 0.06824,-0.02105 0.08929,0 0.02105,0.02104 -0.01331,0.06266 0,0.08928 0.01882,0.03765 0.07046,0.05164 0.08929,0.08929 0.01331,0.02662 -0.02104,0.06824 0,0.08929 0.02105,0.02105 0.06824,-0.02105 0.08929,0 0.02962,0.02962 -0.02962,0.148955 0,0.178571 0.02105,0.02105 0.07598,-0.02662 0.08929,0 0.02662,0.05324 -0.02662,0.125332 0,0.178572 0.01331,0.02662 0.06824,-0.02105 0.08929,0 0.02105,0.02104 -0.01331,0.06266 0,0.08928 0.01882,0.03765 0.07046,0.05164 0.08929,0.08929 0.01331,0.02662 -0.01331,0.06267 0,0.08929 0.01882,0.03765 0.07046,0.05164 0.08929,0.08928 0.01331,0.02662 -0.02104,0.06824 0,0.08929 0.02105,0.02105 0.06824,-0.02105 0.08929,0 0.348458,0.348459 -0.02067,0.04795 0.08929,0.267857 0.01882,0.03765 0.07046,0.05164 0.08929,0.08929 0.01331,0.02662 -0.01331,0.06267 0,0.08929 0.01882,0.03765 0.07046,0.05164 0.08929,0.08928 0.01331,0.02662 -0.01331,0.06267 0,0.08929 0.296124,0.296124 -0.04209,-0.08418 0.08929,0.178572 0.01882,0.03765 0.07046,0.05164 0.08929,0.08928 0.02662,0.05324 -0.02662,0.125332 0,0.178572 0.136141,0.272282 0.07078,-0.163299 0.178571,0.267857 0,0.406454 -0.04209,0.0051 0.08929,0.267857 0.02662,0.05324 -0.04209,0.136482 0,0.178571 0.02104,0.02105 0.06824,-0.02104 0.08929,0 0.01825,0.01825 -0.0177,0.232457 0,0.267858 0.01882,0.03765 0.07046,0.05164 0.08929,0.08928 0.02662,0.05324 -0.02662,0.125332 0,0.178572 0.01882,0.03765 0.07046,0.05164 0.08929,0.08928 0.01331,0.02662 -0.01331,0.06267 0,0.08929 0.01882,0.03765 0.07046,0.05164 0.08929,0.08929 0.0177,0.0354 -0.01825,0.249604 0,0.267857 0.02104,0.02105 0.06824,-0.02105 0.08929,0 0.02765,0.02765 -0.02765,0.418782 0,0.446429 0.02105,0.02104 0.06824,-0.02105 0.08929,0 0.0029,0.0029 0,0.246203 0,0.267857 0,0.238095 0,0.47619 0,0.714285 0,0.04021 0.01359,0.240685 0,0.267858 -0.01882,0.03765 -0.07046,0.05164 -0.08929,0.08928 -0.02662,0.05324 0.04209,0.136482 0,0.178572 -0.02104,0.02105 -0.06824,-0.02105 -0.08929,0 -0.04464,0.04464 0.04464,0.223214 0,0.267857 -0.02104,0.02105 -0.06824,-0.02105 -0.08929,0 -0.02105,0.02105 0.01331,0.06267 0,0.08929 -0.01882,0.03765 -0.07046,0.05164 -0.08929,0.08928 -0.02662,0.05324 0.04209,0.136482 0,0.178572 -0.02105,0.02105 -0.07598,-0.02662 -0.08929,0 -0.02662,0.05324 0.02662,0.125331 0,0.178571 -0.01331,0.02662 -0.06824,-0.02105 -0.08929,0 -0.02105,0.02105 0.01331,0.06267 0,0.08929 -0.01882,0.03765 -0.07046,0.05164 -0.08929,0.08929 -0.01331,0.02662 0.02105,0.06824 0,0.08928 -0.02105,0.02105 -0.06824,-0.02105 -0.08929,0 -0.02104,0.02105 0.02105,0.06824 0,0.08929 -0.02104,0.02105 -0.06824,-0.02105 -0.08929,0 -0.02104,0.02105 0.01331,0.06267 0,0.08929 -0.01342,0.02684 -0.165153,0.151733 -0.178572,0.178571 -0.01331,0.02662 0.02105,0.06824 0,0.08929 -0.02105,0.02105 -0.06824,-0.02105 -0.08929,0 -0.02104,0.02105 0.02104,0.06824 0,0.08929 -0.02104,0.02104 -0.06824,-0.02105 -0.08929,0 -0.02105,0.02104 0.01331,0.06266 0,0.08928 -0.01882,0.03765 -0.07046,0.05164 -0.08929,0.08929 -0.01331,0.02662 0.02105,0.06824 0,0.08929 -0.02105,0.02105 -0.06824,-0.02105 -0.08929,0 -0.02104,0.02105 0.02105,0.06824 0,0.08928 -0.02104,0.02105 -0.05952,0 -0.08929,0 0,0.02976 0.02104,0.06824 0,0.08929 -0.02104,0.02105 -0.06824,-0.02105 -0.08929,0 -0.02105,0.02105 0.01331,0.06267 0,0.08929 -0.01882,0.03765 -0.07046,0.05164 -0.08929,0.08929 -0.01331,0.02662 0.02105,0.06824 0,0.08928 -0.02104,0.02105 -0.06824,-0.02105 -0.08929,0 -0.02104,0.02105 0.02105,0.06824 0,0.08929 -0.02104,0.02105 -0.06824,-0.02105 -0.08929,0 -0.02104,0.02105 0.01331,0.06267 0,0.08929 -0.01882,0.03765 -0.07046,0.05164 -0.08929,0.08928 -0.01331,0.02662 0.02105,0.06824 0,0.08929 -0.02105,0.02105 -0.06824,-0.02105 -0.08929,0 -0.04464,0.04464 0.04464,0.223214 0,0.267857 -0.02105,0.02105 -0.06824,-0.02105 -0.08929,0 -0.04209,0.04209 0.02662,0.125332 0,0.178572 -0.01882,0.03765 -0.07046,0.05164 -0.08929,0.08928 -0.01331,0.02662 0.02104,0.06824 0,0.08929 -0.02105,0.02105 -0.06824,-0.02105 -0.08929,0 -0.04209,0.04209 0.02662,0.125332 0,0.178572 -0.296123,0.296123 0.04209,-0.08418 -0.08929,0.178571 -0.01882,0.03765 -0.07046,0.05164 -0.08929,0.08929 -0.03571,0.07143 0.03571,0.196428 0,0.267857 -0.01882,0.03765 -0.07046,0.05164 -0.08929,0.08929 -0.03571,0.07143 0.03571,0.196428 0,0.267857 -0.01882,0.03765 -0.07046,0.05164 -0.08929,0.08928 -0.0177,0.0354 0.01825,0.249604 0,0.267858 -0.02105,0.02104 -0.06824,-0.02105 -0.08929,0 -0.02943,0.02943 0.02154,0.292531 0,0.357142 -0.01331,0.03993 -0.07046,0.05164 -0.08929,0.08929 -0.02662,0.05324 0.04209,0.136482 0,0.178572 -0.02105,0.02104 -0.06824,-0.02105 -0.08929,0 -0.02443,0.02443 0.02422,0.308706 0,0.357142 -0.01882,0.03765 -0.07046,0.05164 -0.08929,0.08929 -0.01331,0.02662 0,0.05952 0,0.08929 0,0.02976 0,0.05952 0,0.08929 0,0.148809 0,0.297619 0,0.446428 0,0.02976 0.01331,0.06267 0,0.08929 -0.01882,0.03765 -0.07046,0.05164 -0.08929,0.08929 -0.01174,0.02348 0,0.310453 0,0.357142 0,0.267858 0,0.535715 0,0.803572 0,0.238095 0,0.47619 0,0.714286 0,0.02976 0,0.05952 0,0.08928 0,0.02976 -0.02104,0.06824 0,0.08929 0.02105,0.02105 0.06824,-0.02105 0.08929,0 0.03011,0.03011 -0.03011,0.148462 0,0.178571 0.02105,0.02105 0.06267,-0.01331 0.08929,0 0.03765,0.01882 0.119048,0.05952 0.08929,0.08929 -0.02976,0.02976 -0.119048,-0.119047 -0.08929,-0.08929 0.05952,0.05952 0.131877,0.10853 0.178572,0.178572 0.01651,0.02476 -0.02105,0.06824 0,0.08929 0.02104,0.02104 0.06824,-0.02105 0.08929,0 0.04209,0.04209 -0.04209,0.136481 0,0.178571 0.02104,0.02105 0.05972,-0.0034 0.08929,0 0.333737,0.0383 0.666667,0.08333 1,0.125"
       id="path9438"
       inkscape:connector-curvature="0"
       transform="translate(0,988.36217)" />
  </g>
</svg>
