<?xml version="1.0" encoding="UTF-8" standalone="no"?>
<!-- Created with Inkscape (http://www.inkscape.org/) -->

<svg
   xmlns:dc="http://purl.org/dc/elements/1.1/"
   xmlns:cc="http://creativecommons.org/ns#"
   xmlns:rdf="http://www.w3.org/1999/02/22-rdf-syntax-ns#"
   xmlns:svg="http://www.w3.org/2000/svg"
   xmlns="http://www.w3.org/2000/svg"
   xmlns:sodipodi="http://sodipodi.sourceforge.net/DTD/sodipodi-0.dtd"
   xmlns:inkscape="http://www.inkscape.org/namespaces/inkscape"
   width="64"
   height="64"
   id="svg2"
   version="1.1"
   inkscape:version="0.48.4 r9939"
   sodipodi:docname="Hintergrund.svg">
  <defs
     id="defs4">
    <inkscape:perspective
       sodipodi:type="inkscape:persp3d"
       inkscape:vp_x="0 : 32 : 1"
       inkscape:vp_y="0 : 1000 : 0"
       inkscape:vp_z="64 : 32 : 1"
       inkscape:persp3d-origin="32 : 21.333333 : 1"
       id="perspective2999" />
  </defs>
  <sodipodi:namedview
     id="base"
     pagecolor="#ffffff"
     bordercolor="#666666"
     borderopacity="1.0"
     inkscape:pageopacity="0.0"
     inkscape:pageshadow="2"
     inkscape:zoom="11.2"
     inkscape:cx="40.666799"
     inkscape:cy="32.819369"
     inkscape:document-units="px"
     inkscape:current-layer="layer1"
     showgrid="true"
     objecttolerance="10000"
     guidetolerance="10000"
     gridtolerance="10000"
     inkscape:window-width="1920"
     inkscape:window-height="1114"
     inkscape:window-x="-4"
     inkscape:window-y="-4"
     inkscape:window-maximized="1"
     inkscape:snap-grids="true">
    <inkscape:grid
       type="xygrid"
       id="grid2985"
       empspacing="2"
       visible="true"
       enabled="true"
       snapvisiblegridlinesonly="true"
       spacingx="1px"
       spacingy="1px" />
  </sodipodi:namedview>
  <metadata
     id="metadata7">
    <rdf:RDF>
      <cc:Work
         rdf:about="">
        <dc:format>image/svg+xml</dc:format>
        <dc:type
           rdf:resource="http://purl.org/dc/dcmitype/StillImage" />
        <dc:title></dc:title>
      </cc:Work>
    </rdf:RDF>
  </metadata>
  <g
     inkscape:label="Ebene 1"
     inkscape:groupmode="layer"
     id="layer1"
     transform="translate(0,-988.36217)">
    <rect
       style="fill:#f2f2f2;fill-opacity:1;fill-rule:evenodd;stroke:#b3b3b3;stroke-width:0.25000000000000000;stroke-linecap:square;stroke-linejoin:miter;stroke-miterlimit:0;stroke-opacity:1;stroke-dasharray:none"
       id="rect3767"
       width="64"
       height="64"
       x="0"
       y="0"
       rx="0"
       transform="translate(0,988.36217)" />
    <path
       style="fill:none;stroke:#000000;stroke-width:2;stroke-linecap:butt;stroke-linejoin:miter;stroke-miterlimit:4;stroke-opacity:1;stroke-dasharray:none"
       d="m 7,1003.3622 0,36 36,4 0,-36 z"
       id="path3043"
       inkscape:connector-curvature="0" />
    <path
       style="fill:none;stroke:#000000;stroke-width:2;stroke-linecap:butt;stroke-linejoin:miter;stroke-miterlimit:4;stroke-opacity:1;stroke-dasharray:none"
       d="m 43,1043.3622 0,0 8,-8 0,-36.00003 -36,-4 -8,8.00003"
       id="path3045"
       inkscape:connector-curvature="0"
       sodipodi:nodetypes="cccccc" />
    <path
       style="fill:none;stroke:#000000;stroke-width:2;stroke-linecap:butt;stroke-linejoin:miter;stroke-miterlimit:4;stroke-opacity:1;stroke-dasharray:none"
       d="m 43,1007.3622 8,-8.00003"
       id="path3047"
       inkscape:connector-curvature="0" />
    <path
       style="fill:#000001;fill-opacity:0.21367522;fill-rule:evenodd;stroke:none"
       d="m 24.674937,1040.7842 c -9.354911,-1.0476 -17.0390623,-1.9069 -17.0758927,-1.9097 -0.03683,-0 -0.066964,-7.8579 -0.066964,-17.4561 l 0,-17.4511 0.4465544,0.053 c 0.2456049,0.029 8.0904706,0.9021 17.4330356,1.94 l 16.986481,1.8872 0.02255,17.4308 0.02255,17.4307 -0.379689,-0.01 c -0.208828,-0.01 -8.033706,-0.8671 -17.388617,-1.9147 z"
       id="path3049"
       inkscape:connector-curvature="0" />
    <path
       style="fill:#000001;fill-opacity:0.40598294;fill-rule:evenodd;stroke:none"
       d="m 25.65708,1004.8933 c -9.354911,-1.0466 -17.1000849,-1.916 -17.2114983,-1.932 -0.1685223,-0.024 0.3867325,-0.6171 3.3035713,-3.52703 l 3.506141,-3.49783 17.142857,1.91063 c 9.428572,1.05084 17.202934,1.9117 17.276362,1.91301 0.07343,0.001 -1.453167,1.58942 -3.392433,3.52912 -1.939266,1.9398 -3.546218,3.5224 -3.571004,3.5169 -0.02479,-0.01 -7.699085,-0.8662 -17.053996,-1.9128 z"
       id="path3051"
       inkscape:connector-curvature="0" />
    <path
       style="fill:#000001;fill-opacity:0.40598294;fill-rule:evenodd;stroke:none"
       d="m 43.514223,1024.8509 0,-17.1875 3.482143,-3.4813 3.482143,-3.4813 0,17.1875 0,17.1875 -3.482143,3.4813 -3.482143,3.4813 0,-17.1875 z"
       id="path3053"
       inkscape:connector-curvature="0" />
    <path
       style="fill:none;stroke:#000000;stroke-width:0.99999994px;stroke-linecap:butt;stroke-linejoin:miter;stroke-opacity:1"
       d="m 27.979168,1009.1301 0,0 -5.771911,13.8928 6.039768,-2.2321 -7.468339,15.4107"
       id="path3823"
       inkscape:connector-curvature="0"
       sodipodi:nodetypes="ccccc" />
    <path
       style="fill:none;stroke:#000000;stroke-width:0.99999994px;stroke-linecap:butt;stroke-linejoin:miter;stroke-opacity:1"
       d="m 20,1028.3622 0.778686,7.8393 L 28,1031.3622"
       id="path3829"
       inkscape:connector-curvature="0"
       sodipodi:nodetypes="ccc" />
  </g>
</svg>
