<?xml version="1.0" encoding="UTF-8" standalone="no"?>
<!-- Created with Inkscape (http://www.inkscape.org/) -->

<svg
   xmlns:dc="http://purl.org/dc/elements/1.1/"
   xmlns:cc="http://creativecommons.org/ns#"
   xmlns:rdf="http://www.w3.org/1999/02/22-rdf-syntax-ns#"
   xmlns:svg="http://www.w3.org/2000/svg"
   xmlns="http://www.w3.org/2000/svg"
   xmlns:sodipodi="http://sodipodi.sourceforge.net/DTD/sodipodi-0.dtd"
   xmlns:inkscape="http://www.inkscape.org/namespaces/inkscape"
   width="64"
   height="64"
   id="svg2"
   version="1.1"
   inkscape:version="0.48.4 r9939"
   sodipodi:docname="Aussparung.svg">
  <defs
     id="defs4" />
  <sodipodi:namedview
     id="base"
     pagecolor="#ffffff"
     bordercolor="#666666"
     borderopacity="1.0"
     inkscape:pageopacity="0.0"
     inkscape:pageshadow="2"
     inkscape:zoom="11.2"
     inkscape:cx="36.071437"
     inkscape:cy="33.578646"
     inkscape:document-units="px"
     inkscape:current-layer="layer1"
     showgrid="true"
     objecttolerance="10000"
     guidetolerance="10000"
     gridtolerance="10000"
     inkscape:window-width="1600"
     inkscape:window-height="834"
     inkscape:window-x="0"
     inkscape:window-y="27"
     inkscape:window-maximized="1"
     inkscape:snap-bbox="true"
     inkscape:bbox-paths="true">
    <inkscape:grid
       type="xygrid"
       id="grid2985"
       empspacing="5"
       visible="true"
       enabled="true"
       snapvisiblegridlinesonly="true"
       spacingx="4px"
       spacingy="4px" />
  </sodipodi:namedview>
  <metadata
     id="metadata7">
    <rdf:RDF>
      <cc:Work
         rdf:about="">
        <dc:format>image/svg+xml</dc:format>
        <dc:type
           rdf:resource="http://purl.org/dc/dcmitype/StillImage" />
        <dc:title />
      </cc:Work>
    </rdf:RDF>
  </metadata>
  <g
     inkscape:label="Ebene 1"
     inkscape:groupmode="layer"
     id="layer1"
     transform="translate(0,-988.36217)">
    <rect
       style="fill:#f2f2f2;fill-opacity:1;fill-rule:evenodd;stroke:#b3b3b3;stroke-width:0.25000000000000000;stroke-linecap:square;stroke-linejoin:miter;stroke-miterlimit:0;stroke-opacity:1;stroke-dasharray:none"
       id="rect3767"
       width="64"
       height="64"
       x="0"
       y="0"
       rx="0"
       transform="translate(0,988.36217)" />
    <path
       style="fill:none;stroke:#000000;stroke-width:2;stroke-linecap:butt;stroke-linejoin:miter;stroke-opacity:1;stroke-miterlimit:4;stroke-dasharray:none"
       d="m 8,16 c 48,0 48,0 48,0"
       id="path3794"
       inkscape:connector-curvature="0"
       transform="translate(0,988.36217)" />
    <path
       style="fill:none;stroke:#000000;stroke-width:2;stroke-linecap:butt;stroke-linejoin:miter;stroke-opacity:1;stroke-miterlimit:4;stroke-dasharray:none"
       d="m 8,48 c 48,0 48,0 48,0"
       id="path3796"
       inkscape:connector-curvature="0"
       transform="translate(0,988.36217)" />
    <path
       style="fill:#008000;fill-opacity:1;fill-rule:evenodd;stroke:none;stroke-width:0.04500000000000000;stroke-miterlimit:4;stroke-opacity:1;stroke-dasharray:none;stroke-dashoffset:0"
       d="m 16.290929,31.960815 c 0,-14.190931 0.008,-14.955357 0.156449,-14.955357 0.08831,0 3.422654,3.266378 7.65605,7.499999 l 7.499601,7.5 -7.454957,7.455357 c -5.467192,5.467487 -7.508575,7.455358 -7.65605,7.455358 l -0.201093,0 0,-14.955357 z"
       id="path3806"
       inkscape:connector-curvature="0"
       transform="translate(0,988.36217)" />
    <path
       style="fill:#008000;fill-opacity:1;fill-rule:evenodd;stroke:#000000;stroke-width:0.04464286;stroke-miterlimit:4;stroke-opacity:1;stroke-dasharray:none;stroke-dashoffset:0"
       d="m 39.098211,1027.8977 -7.454957,-7.4553 7.499601,-7.5 c 4.233396,-4.2337 7.567737,-7.5 7.65605,-7.5 0.148453,0 0.156449,0.7644 0.156449,14.9553 l 0,14.9554 -0.201093,0 c -0.147474,0 -2.188857,-1.9879 -7.65605,-7.4554 z"
       id="path3808"
       inkscape:connector-curvature="0" />
    <rect
       transform="translate(0,988.36217)"
       rx="0"
       y="0"
       x="0"
       height="64"
       width="64"
       id="rect3757"
       style="fill:#f2f2f2;fill-opacity:1;fill-rule:evenodd;stroke:#b3b3b3;stroke-width:0.25000000000000000;stroke-linecap:square;stroke-linejoin:miter;stroke-miterlimit:0;stroke-opacity:1;stroke-dasharray:none" />
    <path
       transform="translate(0,988.36217)"
       inkscape:connector-curvature="0"
       id="path3759"
       d="m 8,16 c 48,0 48,0 48,0"
       style="fill:none;stroke:#000000;stroke-width:2;stroke-linecap:butt;stroke-linejoin:miter;stroke-opacity:1;stroke-miterlimit:4;stroke-dasharray:none" />
    <path
       transform="translate(0,988.36217)"
       inkscape:connector-curvature="0"
       id="path3761"
       d="m 8,48 c 48,0 48,0 48,0"
       style="fill:none;stroke:#000000;stroke-width:2;stroke-linecap:butt;stroke-linejoin:miter;stroke-opacity:1;stroke-miterlimit:4;stroke-dasharray:none" />
    <path
       transform="translate(0,988.36217)"
       inkscape:connector-curvature="0"
       id="path3763"
       d="m 16.290929,31.960815 c 0,-14.190931 0.008,-14.955357 0.156449,-14.955357 0.08831,0 3.422654,3.266378 7.65605,7.499999 l 7.499601,7.5 -7.454957,7.455357 c -5.467192,5.467487 -7.508575,7.455358 -7.65605,7.455358 l -0.201093,0 0,-14.955357 z"
       style="fill:#008000;fill-opacity:1;fill-rule:evenodd;stroke:none;stroke-width:0.04500000000000000;stroke-miterlimit:4;stroke-opacity:1;stroke-dasharray:none;stroke-dashoffset:0" />
    <path
       inkscape:connector-curvature="0"
       id="path3765"
       d="m 39.098211,1027.8977 -7.454957,-7.4553 7.499601,-7.5 c 4.233396,-4.2337 7.567737,-7.5 7.65605,-7.5 0.148453,0 0.156449,0.7644 0.156449,14.9553 l 0,14.9554 -0.201093,0 c -0.147474,0 -2.188857,-1.9879 -7.65605,-7.4554 z"
       style="fill:#008000;fill-opacity:1;fill-rule:evenodd;stroke:#000000;stroke-width:0.04464286;stroke-miterlimit:4;stroke-opacity:1;stroke-dasharray:none;stroke-dashoffset:0" />
  </g>
</svg>
