<?xml version="1.0" encoding="UTF-8" standalone="no"?>
<!-- Created with Inkscape (http://www.inkscape.org/) -->

<svg
   xmlns:dc="http://purl.org/dc/elements/1.1/"
   xmlns:cc="http://creativecommons.org/ns#"
   xmlns:rdf="http://www.w3.org/1999/02/22-rdf-syntax-ns#"
   xmlns:svg="http://www.w3.org/2000/svg"
   xmlns="http://www.w3.org/2000/svg"
   xmlns:sodipodi="http://sodipodi.sourceforge.net/DTD/sodipodi-0.dtd"
   xmlns:inkscape="http://www.inkscape.org/namespaces/inkscape"
   width="64"
   height="64"
   id="svg2"
   version="1.1"
   inkscape:version="0.48.4 r9939"
   sodipodi:docname="decke.svg">
  <sodipodi:namedview
     id="base"
     pagecolor="#ffffff"
     bordercolor="#666666"
     borderopacity="1.0"
     inkscape:pageopacity="0.0"
     inkscape:pageshadow="2"
     inkscape:zoom="7.919596"
     inkscape:cx="7.5163734"
     inkscape:cy="29.82175"
     inkscape:document-units="px"
     inkscape:current-layer="layer1"
     showgrid="true"
     objecttolerance="10000"
     guidetolerance="10000"
     gridtolerance="10000"
     inkscape:window-width="1600"
     inkscape:window-height="834"
     inkscape:window-x="0"
     inkscape:window-y="27"
     inkscape:window-maximized="1"
     inkscape:snap-grids="true">
    <inkscape:grid
       spacingy="4px"
       spacingx="4px"
       snapvisiblegridlinesonly="true"
       enabled="true"
       visible="true"
       empspacing="5"
       id="grid2985"
       type="xygrid" />
  </sodipodi:namedview>
  <defs
     id="defs4">
    <marker
       style="overflow:visible"
       id="Arrow1Lstart"
       refX="0.0"
       refY="0.0"
       orient="auto"
       inkscape:stockid="Arrow1Lstart">
      <path
         transform="scale(0.8) translate(12.5,0)"
         style="fill-rule:evenodd;stroke:#000000;stroke-width:1.0pt"
         d="M 0.0,0.0 L 5.0,-5.0 L -12.5,0.0 L 5.0,5.0 L 0.0,0.0 z "
         id="path3802" />
    </marker>
  </defs>
  <metadata
     id="metadata7">
    <rdf:RDF>
      <cc:Work
         rdf:about="">
        <dc:format>image/svg+xml</dc:format>
        <dc:type
           rdf:resource="http://purl.org/dc/dcmitype/StillImage" />
        <dc:title></dc:title>
      </cc:Work>
    </rdf:RDF>
  </metadata>
  <g
     transform="translate(0,-988.36217)"
     id="layer1"
     inkscape:groupmode="layer"
     inkscape:label="Ebene 1">
    <rect
       transform="translate(0,988.36217)"
       rx="0"
       y="0"
       x="0"
       height="64"
       width="64"
       id="rect3767"
       style="fill:#f2f2f2;fill-opacity:1;fill-rule:evenodd;stroke:#b3b3b3;stroke-width:0.25000000000000000;stroke-linecap:square;stroke-linejoin:miter;stroke-miterlimit:0;stroke-opacity:1;stroke-dasharray:none" />
    <path
       style="fill:#ff2e2e;stroke:#646464;stroke-width:1px;stroke-linecap:butt;stroke-linejoin:miter;stroke-opacity:1;fill-opacity:1"
       d="M1.37241082939 988.719711899C1.37241082939 988.719711899 20.0559074912 996.309882418 20.0559074912 996.309882418C20.0559074912 996.309882418 23.0419306221 996.309882418 23.0419306221 996.309882418C23.0419306221 996.309882418 9.02930813162 988.719711899 9.02930813162 988.719711899C9.02930813162 988.719711899 16.6862057114 988.719711899 16.6862057114 988.719711899C16.6862057114 988.719711899 26.0279538613 996.309882418 26.0279538613 996.309882418C26.0279538613 996.309882418 29.0139769885 996.309882418 29.0139769885 996.309882418C29.0139769885 996.309882418 24.3431030041 988.719711899 24.3431030041 988.719711899C24.3431030041 988.719711899 32.0000002967 988.719711899 32.0000002967 988.719711899C32.0000002967 988.719711899 32.0000001157 996.309882418 32.0000001157 996.309882418C32.0000001157 996.309882418 34.9860232429 996.309882418 34.9860232429 996.309882418C34.9860232429 996.309882418 39.6568975894 988.719711899 39.6568975894 988.719711899C39.6568975894 988.719711899 47.313794882 988.719711899 47.313794882 988.719711899C47.313794882 988.719711899 37.9720463701 996.309882418 37.9720463701 996.309882418C37.9720463701 996.309882418 40.9580694973 996.309882418 40.9580694973 996.309882418C40.9580694973 996.309882418 54.9706921747 988.719711899 54.9706921747 988.719711899C54.9706921747 988.719711899 62.6275894673 988.719711899 62.6275894673 988.719711899C62.6275894673 988.719711899 43.9440926245 996.309882418 43.9440926245 996.309882418C43.9440926245 996.309882418 20.0559074912 996.309882418 20.0559074912 996.309882418C20.0559074912 996.309882418 1.37241082939 988.719711899 1.37241082939 988.719711899C1.37241082939 988.719711899 54.9706921747 988.719711899 54.9706921747 988.719711899C54.9706921747 988.719711899 1.37241082939 988.719711899 1.37241082939 988.719711899"
       id="path4705"
       inkscape:connector-curvature="0" />
    <path
       style="fill:#2e5eff;fill-opacity:1;stroke:#474747;stroke-width:1px;stroke-linecap:butt;stroke-linejoin:miter;stroke-opacity:1"
       d="m 62.839517,1051.9943 c 0,0 -18.683497,-7.5901 -18.683497,-7.5901 0,0 -2.986024,0 -2.986024,0 0,0 14.012624,7.5901 14.012624,7.5901 0,0 -7.656899,0 -7.656899,0 0,0 -9.341748,-7.5901 -9.341748,-7.5901 0,0 -2.986023,0 -2.986023,0 0,0 4.670874,7.5901 4.670874,7.5901 0,0 -7.656897,0 -7.656897,0 0,0 0,-7.5901 0,-7.5901 0,0 -2.986023,0 -2.986023,0 0,0 -4.670875,7.5901 -4.670875,7.5901 0,0 -7.656897,0 -7.656897,0 0,0 9.341749,-7.5901 9.341749,-7.5901 0,0 -2.986023,0 -2.986023,0 0,0 -14.0126223,7.5901 -14.0126223,7.5901 0,0 -7.6568969,0 -7.6568969,0 0,0 18.6834952,-7.5901 18.6834952,-7.5901 0,0 23.888186,0 23.888186,0 0,0 18.683497,7.5901 18.683497,7.5901 0,0 -53.5982813,0 -53.5982813,0 0,0 53.5982813,0 53.5982813,0"
       id="path4705-5"
       inkscape:connector-curvature="0" />
  </g>
</svg>
