<?xml version="1.0" encoding="UTF-8" standalone="no"?>
<svg
   xmlns:dc="http://purl.org/dc/elements/1.1/"
   xmlns:cc="http://creativecommons.org/ns#"
   xmlns:rdf="http://www.w3.org/1999/02/22-rdf-syntax-ns#"
   xmlns:svg="http://www.w3.org/2000/svg"
   xmlns="http://www.w3.org/2000/svg"
   xmlns:sodipodi="http://sodipodi.sourceforge.net/DTD/sodipodi-0.dtd"
   xmlns:inkscape="http://www.inkscape.org/namespaces/inkscape"
   enable-background="new 0 0 50 50"
   height="50px"
   id="Layer_1"
   version="1.1"
   viewBox="0 0 50 50"
   width="50px"
   xml:space="preserve"
   inkscape:version="0.48.4 r9939"
   sodipodi:docname="layerLockHeader.svg"><metadata
     id="metadata15"><rdf:RDF><cc:Work
         rdf:about=""><dc:format>image/svg+xml</dc:format><dc:type
           rdf:resource="http://purl.org/dc/dcmitype/StillImage" /><dc:title></dc:title></cc:Work></rdf:RDF></metadata><defs
     id="defs13" /><sodipodi:namedview
     pagecolor="#ffffff"
     bordercolor="#666666"
     borderopacity="1"
     objecttolerance="10"
     gridtolerance="10"
     guidetolerance="10"
     inkscape:pageopacity="0"
     inkscape:pageshadow="2"
     inkscape:window-width="1600"
     inkscape:window-height="834"
     id="namedview11"
     showgrid="false"
     inkscape:zoom="9.44"
     inkscape:cx="4.6642651"
     inkscape:cy="20.579172"
     inkscape:window-x="0"
     inkscape:window-y="27"
     inkscape:window-maximized="1"
     inkscape:current-layer="Layer_1" /><rect
     height="43.326271"
     width="43.326271"
     id="rect3"
     x="-6.5677967"
     y="2.5423729"
     style="fill:none" /><path
     d="m 9.0296606,43.269068 c -0.956644,0 -1.73305,-0.776407 -1.73305,-1.733051 V 22.472458 c 0,-0.956644 0.776406,-1.733051 1.73305,-1.733051 H 33.292372 c 0.956644,0 1.733051,0.776407 1.733051,1.733051 v 19.063559 c 0,0.956644 -0.776407,1.733051 -1.733051,1.733051 H 9.0296606 z"
     stroke-miterlimit="10"
     id="path5"
     style="fill:#ffffff;fill-opacity:1;stroke:#ffffff;stroke-width:1.73305082;stroke-linecap:round;stroke-miterlimit:10;stroke-opacity:1"
     inkscape:connector-curvature="0" /><path
     d="m 29.826271,20.739407 c 0,-0.905519 0,-5.160159 0,-6.065678 0,-4.7858201 -3.879435,-8.6652544 -8.665255,-8.6652544 -4.78582,0 -8.665254,3.8794343 -8.665254,8.6652544 0,0.905519 0,5.160159 0,6.065678"
     stroke-miterlimit="10"
     id="path7"
     style="fill:none;stroke:#ffffff;stroke-width:1.73305082;stroke-linecap:round;stroke-miterlimit:10;stroke-opacity:1"
     inkscape:connector-curvature="0" /><path
     d="m 23.760593,30.271186 c 0,-1.435832 -1.163744,-2.599576 -2.599577,-2.599576 -1.435832,0 -2.599576,1.163744 -2.599576,2.599576 0,0.766875 0.338812,1.449697 0.866526,1.92542 v 2.407208 c 0,0.956644 0.776406,1.73305 1.73305,1.73305 0.956644,0 1.733051,-0.776406 1.733051,-1.73305 v -2.407208 c 0.527714,-0.475723 0.866526,-1.158545 0.866526,-1.92542 z"
     id="path9"
     style="fill:none;stroke:none"
     inkscape:connector-curvature="0" /></svg>