<?xml version="1.0" encoding="UTF-8" standalone="no"?>
<svg
   xmlns:dc="http://purl.org/dc/elements/1.1/"
   xmlns:cc="http://creativecommons.org/ns#"
   xmlns:rdf="http://www.w3.org/1999/02/22-rdf-syntax-ns#"
   xmlns:svg="http://www.w3.org/2000/svg"
   xmlns="http://www.w3.org/2000/svg"
   xmlns:sodipodi="http://sodipodi.sourceforge.net/DTD/sodipodi-0.dtd"
   xmlns:inkscape="http://www.inkscape.org/namespaces/inkscape"
   enable-background="new 0 0 48 48"
   height="48px"
   id="Layer_1"
   version="1.1"
   viewBox="0 0 48 48"
   width="48px"
   xml:space="preserve"
   inkscape:version="0.48.4 r9939"
   sodipodi:docname="pencil.svg"><metadata
     id="metadata9"><rdf:RDF><cc:Work
         rdf:about=""><dc:format>image/svg+xml</dc:format><dc:type
           rdf:resource="http://purl.org/dc/dcmitype/StillImage" /><dc:title /></cc:Work></rdf:RDF></metadata><defs
     id="defs7" /><sodipodi:namedview
     pagecolor="#ffffff"
     bordercolor="#666666"
     borderopacity="1"
     objecttolerance="10"
     gridtolerance="10"
     guidetolerance="10"
     inkscape:pageopacity="0"
     inkscape:pageshadow="2"
     inkscape:window-width="1600"
     inkscape:window-height="834"
     id="namedview5"
     showgrid="false"
     inkscape:zoom="9.8333333"
     inkscape:cx="-8.1253984"
     inkscape:cy="20.613229"
     inkscape:window-x="0"
     inkscape:window-y="27"
     inkscape:window-maximized="1"
     inkscape:current-layer="Layer_1" /><path
     style="fill:#fdfd00;fill-opacity:1;stroke:none"
     d="M 31.862161,8.77327 12.383369,28.175674 9.4042599,38.258813 19.258237,35.661641 39.042578,15.724525 z"
     id="path3754"
     inkscape:connector-curvature="0" /><path
     clip-rule="evenodd"
     d="m 41.166288,15.076111 c -0.03455,0.07436 -0.07662,0.145721 -0.137459,0.207315 L 20.067434,36.24407 c -0.08188,0.141215 -0.195297,0.264402 -0.356793,0.325996 L 9.3058089,39.4845 c -0.02178,0.01052 -0.04657,0.01202 -0.07061,0.01953 l -0.0353,0.01052 c -0.006,0.0023 -0.01277,7.51e-4 -0.01803,0.003 -0.07061,0.01878 -0.140463,0.03455 -0.214826,0.0338 -0.07361,0.0023 -0.141966,-0.01127 -0.211823,-0.0308 -0.01577,-0.0045 -0.03004,-0.0015 -0.04582,-0.0068 -0.006,-0.0023 -0.0098,-0.0075 -0.01577,-0.0098 -0.0661,-0.02479 -0.123188,-0.06235 -0.180275,-0.105911 -0.02929,-0.02103 -0.06009,-0.03981 -0.08488,-0.0646 -0.02479,-0.02479 -0.04357,-0.05559 -0.0646,-0.08488 -0.04357,-0.05634 -0.08037,-0.114174 -0.105911,-0.180275 -0.003,-0.006 -0.0075,-0.0098 -0.0098,-0.01577 -0.0053,-0.01502 -0.0023,-0.03005 -0.0068,-0.04582 -0.01878,-0.06911 -0.0323,-0.138211 -0.0308,-0.211072 0,-0.07511 0.01502,-0.14497 0.0338,-0.215578 0.003,-0.006 7.51e-4,-0.01202 0.003,-0.01728 l 0.01052,-0.03681 c 0.0083,-0.02253 0.0098,-0.04732 0.01953,-0.06986 L 11.191849,28.051262 c 0.06159,-0.162247 0.184781,-0.273416 0.325996,-0.356793 L 32.158582,7.053153 c 0.03005,-0.0338 0.06535,-0.06235 0.09615,-0.09539 l 0.224592,-0.224592 c 0.01127,-0.01127 0.02554,-0.01502 0.03756,-0.02554 4.759253,4.268916 3.986185,3.510008 8.649411,8.368484 z m -2.838569,0.833017 -2.718386,-2.718386 -17.75702,17.75777 c 0.003,0.006 0.01052,0.0083 0.01352,0.01427 l 1.782462,3.625767 z m -28.236214,21.762865 2.091933,-0.585141 -1.506793,-1.506041 z m 1.039581,-3.7129 2.672567,2.673318 4.596995,-1.28821 c 0,0 -1.942456,-4.03514 -1.945461,-4.036643 l -4.036642,-1.94546 z m 5.668876,-4.060679 c 0.006,0.003 0.0083,0.0098 0.01427,0.01352 L 34.572004,12.153414 31.853618,9.435027 13.174195,28.11445 z"
     id="path3"
     style="fill:#ffffff;fill-opacity:1;fill-rule:evenodd;stroke:none"
     inkscape:connector-curvature="0"
     sodipodi:nodetypes="cccccccccccscscccccccccccccscccccccccccccccccccccccc" /></svg>