<?xml version="1.0" encoding="UTF-8" standalone="no"?>
<!-- Created with Inkscape (http://www.inkscape.org/) -->

<svg
   xmlns:osb="http://www.openswatchbook.org/uri/2009/osb"
   xmlns:dc="http://purl.org/dc/elements/1.1/"
   xmlns:cc="http://creativecommons.org/ns#"
   xmlns:rdf="http://www.w3.org/1999/02/22-rdf-syntax-ns#"
   xmlns:svg="http://www.w3.org/2000/svg"
   xmlns="http://www.w3.org/2000/svg"
   xmlns:sodipodi="http://sodipodi.sourceforge.net/DTD/sodipodi-0.dtd"
   xmlns:inkscape="http://www.inkscape.org/namespaces/inkscape"
   width="64"
   height="64"
   id="svg2"
   version="1.1"
   inkscape:version="0.48.4 r9939"
   sodipodi:docname="cad_sprinkler_wetalarmvalve.svg">
  <defs
     id="defs4">
    <linearGradient
       id="linearGradient7917"
       osb:paint="solid">
      <stop
         style="stop-color:#0000ff;stop-opacity:1;"
         offset="0"
         id="stop7919" />
    </linearGradient>
  </defs>
  <sodipodi:namedview
     id="base"
     pagecolor="#ffffff"
     bordercolor="#666666"
     borderopacity="1.0"
     inkscape:pageopacity="0.0"
     inkscape:pageshadow="2"
     inkscape:zoom="11.2"
     inkscape:cx="26.112865"
     inkscape:cy="29.252356"
     inkscape:document-units="px"
     inkscape:current-layer="layer1"
     showgrid="true"
     objecttolerance="10000"
     guidetolerance="10000"
     gridtolerance="10000"
     inkscape:window-width="1920"
     inkscape:window-height="1114"
     inkscape:window-x="-4"
     inkscape:window-y="-4"
     inkscape:window-maximized="1"
     inkscape:snap-grids="true">
    <inkscape:grid
       type="xygrid"
       id="grid2985"
       empspacing="2"
       visible="true"
       enabled="true"
       snapvisiblegridlinesonly="true"
       spacingx="1px"
       spacingy="1px" />
  </sodipodi:namedview>
  <metadata
     id="metadata7">
    <rdf:RDF>
      <cc:Work
         rdf:about="">
        <dc:format>image/svg+xml</dc:format>
        <dc:type
           rdf:resource="http://purl.org/dc/dcmitype/StillImage" />
        <dc:title></dc:title>
      </cc:Work>
    </rdf:RDF>
  </metadata>
  <g
     inkscape:label="Ebene 1"
     inkscape:groupmode="layer"
     id="layer1"
     transform="translate(0,-988.36217)">
    <rect
       style="fill:#f2f2f2;fill-opacity:1;fill-rule:evenodd;stroke:#b3b3b3;stroke-width:0.25000000000000000;stroke-linecap:square;stroke-linejoin:miter;stroke-miterlimit:0;stroke-opacity:1;stroke-dasharray:none"
       id="rect3767"
       width="64"
       height="64"
       x="0"
       y="0"
       rx="0"
       transform="translate(0,988.36217)" />
    <g
       id="g4637"
       style="stroke-width:2;stroke-miterlimit:4;stroke-dasharray:none;fill:#000000;fill-opacity:0;stroke:#c80018;stroke-opacity:1"
       transform="translate(-0.17857143,0.98214286)">
      <path
         sodipodi:nodetypes="ccsc"
         transform="translate(0,988.36217)"
         inkscape:connector-curvature="0"
         id="path4629"
         d="m 31,10 c 3,0 7.333333,0 11,0 0,0 -8,4 -4,6 4,2 4,14 4,14"
         style="fill:#000000;stroke:#c80018;stroke-width:2;stroke-linecap:butt;stroke-linejoin:miter;stroke-miterlimit:4;stroke-opacity:1;stroke-dasharray:none;fill-opacity:0" />
      <path
         style="fill:#000000;stroke:#c80018;stroke-width:2;stroke-linecap:butt;stroke-linejoin:miter;stroke-miterlimit:4;stroke-opacity:1;stroke-dasharray:none;fill-opacity:0"
         d="m 31,998.36217 c -3,0 -7.333333,0 -11,0 0,0 8,4.00003 4,6.00003 -4,2 -4,14 -4,14"
         id="path4631"
         inkscape:connector-curvature="0"
         sodipodi:nodetypes="ccsc" />
      <path
         style="fill:#000000;stroke:#c80018;stroke-width:2;stroke-linecap:butt;stroke-linejoin:miter;stroke-miterlimit:4;stroke-opacity:1;stroke-dasharray:none;fill-opacity:0"
         d="m 31,1038.3622 c 3,0 7.333333,0 11,0 0,0 -8,-4 -4,-6 4,-2 4,-14 4,-14"
         id="path4633"
         inkscape:connector-curvature="0"
         sodipodi:nodetypes="ccsc" />
      <path
         sodipodi:nodetypes="ccsc"
         inkscape:connector-curvature="0"
         id="path4635"
         d="m 31,1038.3622 c -3,0 -7.333333,0 -11,0 0,0 8,-4 4,-6 -4,-2 -4,-14 -4,-14"
         style="fill:#000000;stroke:#c80018;stroke-width:2;stroke-linecap:butt;stroke-linejoin:miter;stroke-miterlimit:4;stroke-opacity:1;stroke-dasharray:none;fill-opacity:0" />
    </g>
    <path
       sodipodi:type="arc"
       style="fill:none;stroke:#c80018;stroke-width:2;stroke-linecap:round;stroke-miterlimit:4;stroke-opacity:1;stroke-dasharray:none;stroke-dashoffset:16"
       id="path4643"
       sodipodi:cx="54"
       sodipodi:cy="16"
       sodipodi:rx="6"
       sodipodi:ry="6"
       d="m 60,16 a 6,6 0 1 1 -12,0 6,6 0 1 1 12,0 z"
       transform="translate(0,994.36217)" />
    <path
       transform="translate(0,1010.3622)"
       d="m 60,16 a 6,6 0 1 1 -12,0 6,6 0 1 1 12,0 z"
       sodipodi:ry="6"
       sodipodi:rx="6"
       sodipodi:cy="16"
       sodipodi:cx="54"
       id="path4645"
       style="fill:none;stroke:#c80018;stroke-width:2;stroke-linecap:round;stroke-miterlimit:4;stroke-opacity:1;stroke-dasharray:none;stroke-dashoffset:16"
       sodipodi:type="arc" />
    <path
       style="fill:none;stroke:#c80018;stroke-width:1px;stroke-linecap:butt;stroke-linejoin:miter;stroke-opacity:1"
       d="m 41.263394,1010.3622 5.669643,0"
       id="path4647"
       inkscape:connector-curvature="0" />
    <path
       style="fill:none;stroke:#c80018;stroke-width:1px;stroke-linecap:butt;stroke-linejoin:miter;stroke-opacity:1"
       d="m 42,38 c 2,0 5,0 5,0"
       id="path4649"
       inkscape:connector-curvature="0"
       transform="translate(0,988.36217)" />
    <path
       style="fill:none;stroke:#c80018;stroke-width:1px;stroke-linecap:butt;stroke-linejoin:miter;stroke-opacity:1"
       d="M 21,20 8,20 8,24"
       id="path4651"
       inkscape:connector-curvature="0"
       transform="translate(0,988.36217)" />
    <path
       style="fill:none;stroke:#c80018;stroke-width:1px;stroke-linecap:butt;stroke-linejoin:miter;stroke-opacity:1"
       d="m 4,24 c 1,0 8,0 8,0 l -8,14 8,0 z"
       id="path4653"
       inkscape:connector-curvature="0"
       transform="translate(0,988.36217)" />
    <path
       style="fill:none;stroke:#c80018;stroke-width:1px;stroke-linecap:butt;stroke-linejoin:round;stroke-opacity:1"
       d="m 28.803571,1012.3622 0,-2 0,-6 4,8 0,-8"
       id="path4657"
       inkscape:connector-curvature="0"
       sodipodi:nodetypes="ccccc" />
    <path
       style="fill:none;stroke:#c80018;stroke-width:1px;stroke-linecap:butt;stroke-linejoin:round;stroke-opacity:1"
       d="m 28.892857,1024.2729 2,-8 2,8"
       id="path4659"
       inkscape:connector-curvature="0" />
    <path
       style="fill:none;stroke:#c80018;stroke-width:1px;stroke-linecap:butt;stroke-linejoin:miter;stroke-opacity:1"
       d="m 29.892857,1022.2729 2,0"
       id="path4661"
       inkscape:connector-curvature="0" />
    <path
       style="fill:none;stroke:#c80018;stroke-width:1px;stroke-linecap:butt;stroke-linejoin:round;stroke-opacity:1"
       d="m 29.071429,1028.2729 2,8 2,-8"
       id="path4663"
       inkscape:connector-curvature="0"
       sodipodi:nodetypes="ccc" />
  </g>
</svg>
