<?xml version="1.0" encoding="UTF-8" standalone="no"?>
<!-- Created with Inkscape (http://www.inkscape.org/) -->

<svg
   xmlns:dc="http://purl.org/dc/elements/1.1/"
   xmlns:cc="http://creativecommons.org/ns#"
   xmlns:rdf="http://www.w3.org/1999/02/22-rdf-syntax-ns#"
   xmlns:svg="http://www.w3.org/2000/svg"
   xmlns="http://www.w3.org/2000/svg"
   xmlns:sodipodi="http://sodipodi.sourceforge.net/DTD/sodipodi-0.dtd"
   xmlns:inkscape="http://www.inkscape.org/namespaces/inkscape"
   width="64"
   height="64"
   id="svg2"
   version="1.1"
   inkscape:version="0.48.4 r9939"
   sodipodi:docname="cad_gas_cdamoisturesensor.svg">
  <defs
     id="defs4" />
  <sodipodi:namedview
     id="base"
     pagecolor="#ffffff"
     bordercolor="#666666"
     borderopacity="1.0"
     inkscape:pageopacity="0.0"
     inkscape:pageshadow="2"
     inkscape:zoom="11.2"
     inkscape:cx="26.709537"
     inkscape:cy="30.841684"
     inkscape:document-units="px"
     inkscape:current-layer="layer1"
     showgrid="true"
     objecttolerance="10000"
     guidetolerance="10000"
     gridtolerance="10000"
     inkscape:window-width="1920"
     inkscape:window-height="1114"
     inkscape:window-x="-4"
     inkscape:window-y="-4"
     inkscape:window-maximized="1"
     inkscape:snap-grids="true">
    <inkscape:grid
       type="xygrid"
       id="grid2985"
       empspacing="2"
       visible="true"
       enabled="true"
       snapvisiblegridlinesonly="true"
       spacingx="1px"
       spacingy="1px" />
  </sodipodi:namedview>
  <metadata
     id="metadata7">
    <rdf:RDF>
      <cc:Work
         rdf:about="">
        <dc:format>image/svg+xml</dc:format>
        <dc:type
           rdf:resource="http://purl.org/dc/dcmitype/StillImage" />
        <dc:title />
      </cc:Work>
    </rdf:RDF>
  </metadata>
  <g
     inkscape:groupmode="layer"
     id="layer2"
     inkscape:label="Ebene 0"
     style="display:inline"
     sodipodi:insensitive="true">
    <rect
       style="fill:#f2f2f2;fill-opacity:1;fill-rule:evenodd;stroke:#b3b3b3;stroke-width:0.25;stroke-linecap:square;stroke-linejoin:miter;stroke-miterlimit:0;stroke-opacity:1;stroke-dasharray:none"
       id="rect3767"
       width="64"
       height="64"
       x="0"
       y="0"
       rx="0" />
  </g>
  <g
     inkscape:label="Ebene 1"
     inkscape:groupmode="layer"
     id="layer1"
     transform="translate(0,-988.36217)">
    <path
       style="fill:none;stroke:#000000;stroke-width:1px;stroke-linecap:butt;stroke-linejoin:miter;stroke-opacity:1"
       d="m 21,15 c 1.184677,-0.542977 0.06371,0.07914 0.517857,-0.375 0.02105,-0.02105 0.06824,0.02105 0.08929,0 0.04209,-0.04209 -0.04209,-0.136482 0,-0.178571 0.02105,-0.02105 0.06824,0.02104 0.08929,0 0.02104,-0.02105 -0.01331,-0.06267 0,-0.08929 0.01882,-0.03765 0.07046,-0.05164 0.08929,-0.08929 0.02662,-0.05324 -0.02662,-0.125332 0,-0.178571 0.296124,-0.296124 -0.04209,0.08418 0.08929,-0.178572 0.01882,-0.03765 0.07046,-0.05164 0.08929,-0.08929 0.01331,-0.02662 -0.01331,-0.06267 0,-0.08929 0.03765,-0.07529 0.140925,-0.103279 0.178571,-0.178572 0.01331,-0.02662 -0.01331,-0.06266 0,-0.08929 0.03765,-0.07529 0.140925,-0.103279 0.178572,-0.178572 0.01331,-0.02662 -0.01331,-0.06267 0,-0.08929 0.296123,-0.296124 -0.04209,0.08418 0.08929,-0.178572 0.01185,-0.02371 0.244151,-0.256004 0.267857,-0.267857 0.02662,-0.01331 0.06824,0.02105 0.08929,0 0.02105,-0.02105 -0.01331,-0.06267 0,-0.08929 0.01882,-0.03765 0.05952,-0.05952 0.08929,-0.08929 0.02976,-0.02976 0.05164,-0.07046 0.08929,-0.08929 0.02662,-0.01331 0.06824,0.02104 0.08929,0 0.184736,-0.184735 -0.2823,0.0072 0.08929,-0.178572 0.02662,-0.01331 0.06824,0.02105 0.08929,0 0.02104,-0.02104 -0.01331,-0.06266 0,-0.08929 0.01882,-0.03765 0.05952,-0.05952 0.08929,-0.08929 0.02976,-0.02976 0.05164,-0.07046 0.08929,-0.08929 0.02662,-0.01331 0.06824,0.02104 0.08929,0 0.184735,-0.184735 -0.2823,0.0072 0.08929,-0.178571 0.02662,-0.01331 0.06267,0.01331 0.08929,0 0.07529,-0.03765 0.103279,-0.140925 0.178572,-0.178572 0.02662,-0.01331 0.06267,0.01331 0.08929,0 0.07529,-0.03765 0.10328,-0.140925 0.178572,-0.178571 0.02662,-0.01331 0.06267,0.01331 0.08929,0 0.07529,-0.03765 0.103279,-0.140925 0.178571,-0.178571 0.05324,-0.02662 0.136482,0.04209 0.178571,0 0.02104,-0.02105 -0.02104,-0.06824 0,-0.08929 0.02104,-0.02105 0.06267,0.01331 0.08929,0 0.07529,-0.03765 0.103279,-0.140925 0.178572,-0.178572 0.02662,-0.01331 0.06267,0.01331 0.08929,0 0.296124,-0.296123 -0.08418,0.04209 0.178572,-0.08929 0.03765,-0.01882 0.05164,-0.07046 0.08929,-0.08929 0.02662,-0.01331 0.06267,0.01331 0.08929,0 0.07529,-0.03765 0.103279,-0.140925 0.178572,-0.178571 0.04817,-0.02409 0.130396,0.02409 0.178571,0 0.03765,-0.01882 0.05164,-0.07046 0.08929,-0.08929 0.07143,-0.03571 0.196428,0.03571 0.267857,0 0.03765,-0.01882 0.04936,-0.07598 0.08929,-0.08929 0.406454,0 0.0051,0.04209 0.267857,-0.08929 0.02662,-0.01331 0.05952,0 0.08929,0 0.05952,0 0.122103,0.01882 0.178572,0 0.03993,-0.01331 0.04936,-0.07597 0.08929,-0.08929 0.05647,-0.01882 0.119047,0 0.178571,0 0.02976,0 0.06267,0.01331 0.08929,0 0.03765,-0.01882 0.04936,-0.07598 0.08929,-0.08929 0.05647,-0.01882 0.119048,0 0.178572,0 0.04983,0 0.405557,0.01362 0.446428,0 0.03993,-0.01331 0.04936,-0.07598 0.08929,-0.08929 0.08257,-0.02752 0.47689,0.02941 0.535714,0 0.03765,-0.01882 0.04936,-0.07598 0.08929,-0.08929 0.07395,-0.02465 0.389648,0.02839 0.446429,0 0.03765,-0.01882 0.04936,-0.075976 0.08929,-0.089286 0.121911,-0.040637 0.413805,0.040637 0.535715,0 0.03993,-0.01331 0.04936,-0.075976 0.08929,-0.089286 0.04084,-0.013613 0.317413,0.019865 0.357143,0 0.03765,-0.018823 0.05164,-0.070463 0.08929,-0.089286 0.02662,-0.01331 0.05952,0 0.08929,0 0.148809,0 0.297619,0 0.446428,0 0.02976,0 0.05952,0 0.08929,0 0.02976,0 0.06267,0.01331 0.08929,0 0.03765,-0.018823 0.05164,-0.070463 0.08929,-0.089286 0.02662,-0.01331 0.05952,0 0.08929,0 0.02976,0 0.05952,0 0.08929,0 0.148809,0 0.297619,0 0.446428,0 0.02976,0 0.06267,0.01331 0.08929,0 0.03765,-0.018823 0.05164,-0.070463 0.08929,-0.089286 0.02717,-0.013586 0.227646,0 0.267857,0 0.208333,0 0.416667,0 0.625,0 0.208333,0 0.416667,0 0.625,0 0.05952,0 0.119048,0 0.178571,0 0.02976,0 0.06267,-0.01331 0.08929,0 0.03765,0.018823 0.05164,0.070463 0.08929,0.089286 0.05612,0.028059 0.301025,-0.028059 0.357143,0 0.03765,0.018823 0.05164,0.070463 0.08928,0.089286 0.04758,0.023787 0.130997,-0.023787 0.178572,0 0.03765,0.018823 0.05164,0.070463 0.08929,0.089286 0.05324,0.02662 0.125331,-0.02662 0.178571,0 0.03765,0.018823 0.05164,0.070463 0.08929,0.089286 0.04762,0.02381 0.13095,-0.023811 0.178571,0 0.03765,0.018823 0.05164,0.070462 0.08929,0.089286 0.02662,0.01331 0.06267,-0.01331 0.08929,0 0.03765,0.01882 0.05164,0.07046 0.08928,0.08929 0.02662,0.01331 0.06267,-0.01331 0.08929,0 0.03765,0.01882 0.05164,0.07046 0.08929,0.08929 0.02662,0.01331 0.06267,-0.01331 0.08928,0 0.03765,0.01882 0.05164,0.07046 0.08929,0.08929 0.02662,0.01331 0.06267,-0.01331 0.08929,0 0.07529,0.03765 0.103279,0.140925 0.178571,0.178571 0.02662,0.01331 0.06267,-0.01331 0.08929,0 0.07529,0.03765 0.103279,0.140925 0.178571,0.178572 0.02662,0.01331 0.06267,-0.01331 0.08929,0 0.07529,0.03765 0.09871,0.151951 0.178572,0.178571 0.05647,0.01882 0.122102,-0.01882 0.178571,0 0.18015,0.06005 6.1e-5,0.178602 0.178571,0.267857 0.02662,0.01331 0.06267,-0.01331 0.08929,0 0.03765,0.01882 0.04936,0.07598 0.08929,0.08929 0.05647,0.01882 0.122102,-0.01882 0.178571,0 0.03993,0.01331 0.05164,0.07046 0.08929,0.08929 0.02662,0.01331 0.06267,-0.01331 0.08929,0 0.03765,0.01882 0.05427,0.06594 0.08928,0.08929 0.05537,0.03691 0.123199,0.05237 0.178572,0.08929 0.07704,0.05136 0.198117,0.198117 0.267857,0.267857 0.02976,0.02976 0.05952,0.05952 0.08929,0.08929 0.02976,0.02976 0.05164,0.07046 0.08928,0.08929 0.02662,0.01331 0.06267,-0.01331 0.08929,0 0.02474,0.01237 0.153835,0.166202 0.178572,0.178571 0.02662,0.01331 0.06266,-0.01331 0.08928,0 0.119694,0.05985 0.05888,0.118725 0.178572,0.178571 0.02662,0.01331 0.06267,-0.01331 0.08928,0 0.03765,0.01882 0.05952,0.05952 0.08929,0.08929 0.02976,0.02976 0.07046,0.05164 0.08929,0.08929 0.01331,0.02662 -0.02105,0.06824 0,0.08929 0.02105,0.02104 0.06824,-0.02105 0.08929,0 0.02104,0.02104 -0.01331,0.06266 0,0.08929 0.08219,0.164377 0.185669,0.01419 0.267857,0.178572 0.01331,0.02662 -0.02105,0.06824 0,0.08929 0.02105,0.02105 0.06824,-0.02104 0.08928,0 0.02105,0.02105 -0.01331,0.06267 0,0.08929 0.05989,0.119787 0.118679,0.05879 0.178572,0.178572 0.01331,0.02662 -0.01331,0.06266 0,0.08929 0.01882,0.03765 0.07046,0.05164 0.08929,0.08929 0.01331,0.02662 -0.02105,0.06824 0,0.08929 0.02104,0.02105 0.06824,-0.02104 0.08928,0 0.04209,0.04209 -0.02662,0.125331 0,0.178571 0.01882,0.03765 0.07046,0.05164 0.08929,0.08929 0.01331,0.02662 -0.01331,0.06267 0,0.08929 0.01882,0.03765 0.07046,0.05164 0.08929,0.08929 0.02662,0.05324 -0.02662,0.125332 0,0.178572 0.01882,0.03765 0.07046,0.05164 0.08928,0.08929 0.01331,0.02662 -0.01331,0.06267 0,0.08929 0.01882,0.03765 0.07046,0.05164 0.08929,0.08929 0.0177,0.0354 -0.01825,0.249604 0,0.267857 0.02105,0.02105 0.06824,-0.02105 0.08929,0 0.01825,0.01825 -0.0177,0.232456 0,0.267857 0.01882,0.03765 0.07046,0.05164 0.08929,0.08929 0.03571,0.07143 -0.03572,0.196428 0,0.267857 0.01882,0.03765 0.07046,0.05164 0.08928,0.08929 0.02662,0.05324 -0.02662,0.125331 0,0.178571 0.01882,0.03765 0.07046,0.05164 0.08929,0.08929 0.02806,0.05612 -0.02806,0.301025 0,0.357143 0.01882,0.03765 0.07046,0.05164 0.08929,0.08929 0.02772,0.05545 -0.02861,0.478503 0,0.535715 0.01882,0.03765 0.07598,0.04936 0.08928,0.08929 0.01646,0.04938 0,0.445799 0,0.535715 0,0.0621 0.01615,0.41414 0,0.446428 -0.01882,0.03765 -0.07046,0.05164 -0.08928,0.08929 -0.02853,0.05706 0.02396,0.285277 0,0.357143 -0.02105,0.06313 -0.06824,0.115437 -0.08929,0.178571 -0.01882,0.05647 0.02662,0.125332 0,0.178572 -0.01882,0.03765 -0.07046,0.05164 -0.08929,0.08929 -0.03571,0.07143 0.03572,0.196429 0,0.267858 -0.01882,0.03765 -0.07046,0.05164 -0.08928,0.08929 -0.02662,0.05324 0.02662,0.125332 0,0.178572 -0.01882,0.03765 -0.07046,0.05164 -0.08929,0.08929 -0.01331,0.02662 0.01331,0.06267 0,0.08929 -0.01882,0.03765 -0.07046,0.05164 -0.08929,0.08929 -0.01331,0.02662 0.01331,0.06267 0,0.08929 -0.01882,0.03765 -0.07046,0.05164 -0.08929,0.08929 -0.01331,0.02662 0.01331,0.06267 0,0.08929 -0.01882,0.03765 -0.07046,0.05164 -0.08928,0.08929 -0.01331,0.02662 0.01331,0.06267 0,0.08929 -0.01882,0.03765 -0.07046,0.05164 -0.08929,0.08929 -0.01331,0.02662 0.01331,0.06267 0,0.08929 -0.03765,0.07529 -0.140925,0.103279 -0.178571,0.178571 -0.01331,0.02662 0.01331,0.06267 0,0.08929 -0.01882,0.03765 -0.05952,0.05952 -0.08929,0.08929 -0.02976,0.02976 -0.05952,0.05952 -0.08929,0.08929 -0.119047,0.119048 -0.238095,0.238096 -0.357143,0.357143 -0.02976,0.02976 -0.05952,0.05952 -0.08928,0.08929 -0.02976,0.02976 -0.07046,0.05164 -0.08929,0.08929 -0.01331,0.02662 0.02105,0.06824 0,0.08929 -0.04706,0.04706 -0.123199,0.05237 -0.178572,0.08929 -0.07704,0.05136 -0.198117,0.198117 -0.267857,0.267857 -0.02976,0.02976 -0.05164,0.07046 -0.08928,0.08929 -0.02662,0.01331 -0.06267,-0.01331 -0.08929,0 -0.107143,0.05357 -0.160714,0.214286 -0.267857,0.267857 -0.02662,0.01331 -0.06267,-0.01331 -0.08929,0 -0.03694,0.01847 -0.242627,0.230012 -0.267857,0.267857 -0.03692,0.05537 -0.05237,0.123199 -0.08929,0.178572 0.0089,0.17688 -0.131514,0.04223 -0.178571,0.08929 -0.02105,0.02104 0,0.05952 0,0.08929 -0.05952,0.05952 -0.10853,0.131877 -0.178572,0.178572 -0.02476,0.01651 -0.06452,-0.01651 -0.08928,0 -0.131382,0.08759 -0.225762,0.269555 -0.357143,0.357142 -0.05537,0.03692 -0.123199,0.05237 -0.178572,0.08929 -0.03502,0.02335 -0.05427,0.06594 -0.08928,0.08929 -0.05537,0.03692 -0.123199,0.05237 -0.178572,0.08929 -0.05866,0.03911 -0.219532,0.251748 -0.267857,0.267857 -0.05647,0.01882 -0.120825,-0.01444 -0.178571,0 -0.215953,0.05399 -0.206525,0.167445 -0.357143,0.267857 -0.05537,0.03692 -0.123199,0.05237 -0.178572,0.08929 -0.07004,0.04669 -0.10853,0.131877 -0.178571,0.178571 -0.05537,0.03692 -0.123199,0.05237 -0.178572,0.08929 -0.03502,0.02335 -0.05427,0.06594 -0.08928,0.08929 -0.05537,0.03692 -0.123199,0.05237 -0.178572,0.08929 -0.07004,0.04669 -0.10853,0.131877 -0.178571,0.178572 -0.05537,0.03692 -0.123199,0.05237 -0.178572,0.08929 -0.03502,0.02335 -0.04936,0.07598 -0.08928,0.08929 -0.05647,0.01882 -0.122102,-0.01882 -0.178572,0 -0.03993,0.01331 -0.05427,0.06594 -0.08928,0.08929 -0.647374,0.323686 0.141173,-0.09412 -0.267858,0.178571 -0.451054,0.300703 -0.0021,6.9e-4 -0.267857,0.08929 -0.06313,0.02105 -0.115437,0.06824 -0.178571,0.08929 -0.02824,0.0094 -0.06267,-0.01331 -0.08929,0 -0.07529,0.03765 -0.10853,0.131877 -0.178571,0.178571 -0.04496,0.196711 -0.183678,0.0472 -0.267857,0.08929 -0.408626,0.204313 0.378876,-0.03701 -0.267858,0.178571 -0.02823,0.0094 -0.06266,-0.01331 -0.08928,0 -0.07529,0.03765 -0.10853,0.131877 -0.178572,0.178572 -0.05952,0.02976 -0.119047,0.05952 -0.178571,0.08929 -0.02976,0 -0.06267,-0.01331 -0.08929,0 -0.03765,0.01882 -0.05427,0.06594 -0.08929,0.08929 -0.05952,0.02976 -0.119047,0.05952 -0.178571,0.08929 -0.02976,0 -0.06267,-0.01331 -0.08929,0 -0.03765,0.01882 -0.04936,0.07598 -0.08929,0.08929 -0.05647,0.01882 -0.122103,-0.01882 -0.178572,0 -0.03993,0.01331 -0.05427,0.06594 -0.08929,0.08929 -0.05952,0.02976 -0.119047,0.05952 -0.178571,0.08929 -0.02976,0 -0.06267,-0.01331 -0.08929,0 -0.03765,0.01882 -0.04936,0.07598 -0.08929,0.08929 -0.05647,0.01882 -0.122103,-0.01882 -0.178572,0 -0.07986,0.02662 -0.09871,0.151951 -0.178571,0.178571 -0.05647,0.01882 -0.119048,0 -0.178572,0 -0.02976,0 -0.06267,-0.01331 -0.08929,0 -0.03765,0.01882 -0.05426,0.06594 -0.08929,0.08929 -0.05952,0.02976 -0.119048,0.05952 -0.178572,0.08929 -0.02976,0 -0.06267,-0.01331 -0.08929,0 -0.03765,0.01882 -0.05164,0.07046 -0.08929,0.08929 -0.02662,0.01331 -0.05952,0 -0.08929,0 -0.05952,0.02976 -0.123198,0.05237 -0.178571,0.08929 -0.03502,0.02335 -0.05164,0.07046 -0.08929,0.08929 -0.02662,0.01331 -0.06105,-0.0094 -0.08929,0 -0.126269,0.04209 -0.230873,0.136481 -0.357142,0.178571 -0.02823,0.0094 -0.06267,-0.01331 -0.08929,0 -0.03765,0.01882 -0.04936,0.07598 -0.08929,0.08929 -0.05647,0.01882 -0.122102,-0.01882 -0.178571,0 -8.27e-4,2.75e-4 -0.177745,0.178295 -0.178572,0.178571 -0.406454,0 -0.0051,-0.04209 -0.267857,0.08929 -0.02662,0.01331 -0.06824,-0.02105 -0.08929,0 -0.02104,0.02105 0.02476,0.07278 0,0.08929 -0.06321,0.272237 -0.247386,0.03441 -0.357142,0.08929 -0.03765,0.01882 -0.05426,0.06594 -0.08929,0.08929 -0.05952,0.02976 -0.119048,0.05952 -0.178572,0.08929 -0.02976,0 -0.06267,-0.01331 -0.08929,0 -0.03765,0.01882 -0.05427,0.06594 -0.08929,0.08929 -0.05952,0.02976 -0.119048,0.05952 -0.178571,0.08929 -0.02976,0 -0.06267,-0.01331 -0.08929,0 -0.408626,0.204313 0.378876,-0.03701 -0.267857,0.178572 -0.02824,0.0094 -0.06267,-0.01331 -0.08929,0 -0.07529,0.03765 -0.09871,0.151951 -0.178571,0.178571 -0.05647,0.01882 -0.122103,-0.01882 -0.178572,0 -0.07986,0.02662 -0.103279,0.140925 -0.178571,0.178571 -0.02662,0.01331 -0.06267,-0.01331 -0.08929,0 -0.02684,0.01342 -0.151733,0.165153 -0.178571,0.178572 -0.02662,0.01331 -0.05952,0 -0.08929,0 -0.05952,0.02976 -0.123199,0.05237 -0.178572,0.08929 -0.03784,0.02523 -0.249386,0.230915 -0.267857,0.267857 -0.01331,0.02662 0.02105,0.06824 0,0.08929 -0.04706,0.04706 -0.115437,0.06824 -0.178571,0.08929 -0.02824,0.0094 -0.06824,-0.02105 -0.08929,0 -0.02105,0.02105 0.01331,0.06267 0,0.08929 -0.01185,0.02371 -0.244151,0.256004 -0.267857,0.267857 -0.219906,0.109953 0.0806,-0.259173 -0.267857,0.08929 -0.04706,0.04706 -0.04223,0.131513 -0.08929,0.178571 -0.02105,0.02105 -0.06267,-0.01331 -0.08929,0 -0.03765,0.01882 -0.05952,0.05952 -0.08929,0.08929 -0.05251,0.05251 -0.315797,0.33647 -0.357143,0.357143 -0.02662,0.01331 -0.06824,-0.02105 -0.08929,0 -0.02105,0.02104 0.01331,0.06267 0,0.08929 -0.05357,0.107143 -0.214286,0.160715 -0.267857,0.267858 -0.06158,0.123156 0.10813,0.07986 -0.08929,0.178571 -0.02662,0.01331 -0.06824,-0.02105 -0.08929,0 -0.04209,0.04209 0.02662,0.125332 0,0.178571 -0.03765,0.07529 -0.140926,0.10328 -0.178572,0.178572 -0.01331,0.02662 0.02105,0.06824 0,0.08929 -0.02105,0.02104 -0.06824,-0.02104 -0.08929,0 -0.02104,0.02104 0.01331,0.06267 0,0.08929 -0.01882,0.03765 -0.07046,0.05164 -0.08929,0.08929 -0.02662,0.05324 0.02662,0.125332 0,0.178571 -0.01882,0.03765 -0.07046,0.05164 -0.08929,0.08929 -0.02373,0.04746 0.02373,0.131115 0,0.178572 -0.296123,0.296123 0.04209,-0.08418 -0.08929,0.178571 -0.01882,0.03765 -0.07598,0.04936 -0.08929,0.08929 -0.01882,0.05647 0,0.119047 0,0.178571 0,0.02976 0.01331,0.06267 0,0.08929 -0.01882,0.03765 -0.07046,0.05164 -0.08929,0.08929 -0.01331,0.02662 0.01331,0.06266 0,0.08928 -0.01882,0.03765 -0.07046,0.05164 -0.08929,0.08929 -0.02662,0.05324 0.02662,0.125332 0,0.178571 -0.01882,0.03765 -0.07046,0.05164 -0.08929,0.08929 -0.02662,0.05324 0.01882,0.122102 0,0.178572 -0.02104,0.06313 -0.06824,0.115436 -0.08929,0.178571 -0.02679,0.08036 0.02679,0.1875 0,0.267857 -0.02105,0.06314 -0.07315,0.114009 -0.08929,0.178572 -0.02165,0.08662 0,0.178571 0,0.267857 0,0.208333 0,0.416666 0,0.625 0,0.238095 0,0.47619 0,0.714285 0,0.02122 -0.01001,0.337132 0,0.357143 0.01882,0.03765 0.07046,0.05164 0.08929,0.08929 0.02711,0.05422 -0.02711,0.481498 0,0.535714 0.01882,0.03765 0.07046,0.05164 0.08929,0.08929 0.03571,0.07143 -0.03571,0.196429 0,0.267857 0.296124,0.296124 -0.04209,-0.08418 0.08929,0.178572 0.01882,0.03765 0.07046,0.05164 0.08929,0.08928 0.02409,0.04818 -0.02409,0.130397 0,0.178572 0.01882,0.03765 0.07046,0.05164 0.08929,0.08928 0.02662,0.05324 -0.02662,0.125332 0,0.178572 0.296123,0.296123 -0.04209,-0.08418 0.08929,0.178571 0.01882,0.03765 0.07046,0.05164 0.08929,0.08929 0.01331,0.02662 -0.01331,0.06267 0,0.08929 0.01882,0.03765 0.07046,0.05164 0.08929,0.08928 0.01331,0.02662 -0.0094,0.06105 0,0.08929 0.02104,0.06314 0.06824,0.115437 0.08929,0.178572 0.0094,0.02823 -0.02104,0.06824 0,0.08928 0.02104,0.02105 0.06824,-0.02105 0.08929,0 0.02105,0.02105 -0.01331,0.06267 0,0.08929 0.296124,0.296123 -0.04209,-0.08418 0.08929,0.178571 0.03765,0.07529 0.140925,0.10328 0.178571,0.178572 0.01331,0.02662 -0.01331,0.06267 0,0.08929 0.01882,0.03765 0.05952,0.05952 0.08929,0.08928 0.02976,0.02976 0.05164,0.07046 0.08929,0.08929 0.02662,0.01331 0.06824,-0.02105 0.08929,0 0.02104,0.02105 -0.02104,0.06824 0,0.08929 0.02104,0.02105 0.06824,-0.02105 0.08929,0 0.184735,0.184735 -0.2823,-0.0072 0.08929,0.178571 0.02662,0.01331 0.06824,-0.02105 0.08929,0 0.02104,0.02105 -0.02104,0.06824 0,0.08929 0.02104,0.02105 0.06267,-0.01331 0.08929,0 0.08786,0.04393 0.269283,0.313213 0.357143,0.357143 0.02662,0.01331 0.06824,-0.02105 0.08929,0 0.02105,0.02105 -0.02105,0.06824 0,0.08928 0.02105,0.02105 0.06824,-0.02104 0.08929,0 0.02104,0.02105 -0.02104,0.06824 0,0.08929 0.02104,0.02105 0.06267,-0.01331 0.08929,0 0.07529,0.03765 0.103279,0.140925 0.178572,0.178572 0.02662,0.01331 0.06267,-0.01331 0.08929,0 0.03765,0.01882 0.05164,0.07046 0.08929,0.08928 0.02662,0.01331 0.05952,0 0.08929,0 0.02976,0.02976 0.05164,0.07046 0.08929,0.08929 0.02662,0.01331 0.06267,-0.01331 0.08929,0 0.03765,0.01882 0.05164,0.07046 0.08929,0.08929 0.05324,0.02662 0.136482,-0.04209 0.178571,0 0.02104,0.02105 -0.02662,0.07598 0,0.08928 0.05324,0.02662 0.122103,-0.01882 0.178572,0 0.03993,0.01331 0.05164,0.07046 0.08929,0.08929 0.02662,0.01331 0.05952,0 0.08929,0 0.02976,0.02976 0.05164,0.07046 0.08929,0.08929 0.02662,0.01331 0.05952,0 0.08929,0 0.05952,0 0.122102,-0.01882 0.178571,0 0.03993,0.01331 0.05164,0.07046 0.08929,0.08929 0.02662,0.01331 0.05952,0 0.08929,0 0.05952,0 0.122102,-0.01882 0.178571,0 0.03993,0.01331 0.05164,0.07046 0.08929,0.08928 0.05316,0.02658 0.371256,-0.02506 0.446428,0 0.06314,0.02105 0.115437,0.06824 0.178572,0.08929 0.09488,0.03162 0.262267,-0.03162 0.357143,0 0.06313,0.02105 0.114008,0.07314 0.178571,0.08929 0.140056,0.03501 0.306373,-0.03501 0.446429,0 0.06456,0.01614 0.115436,0.06824 0.178571,0.08928 0.08555,0.02852 0.363713,-0.02757 0.446429,0 0.03993,0.01331 0.04936,0.07598 0.08929,0.08929 0.112939,0.03765 0.24165,-0.02887 0.357143,0 0.06456,0.01614 0.114009,0.07315 0.178572,0.08929 0.140056,0.03501 0.306372,-0.03501 0.446428,0 0.06456,0.01614 0.114009,0.07314 0.178572,0.08929 0.05775,0.01444 0.119047,0 0.178571,0 0.208333,0 0.416667,0 0.625,0 0.05952,0 0.122102,-0.01882 0.178571,0 0.03993,0.01331 0.04936,0.07597 0.08929,0.08928 0.0457,0.01524 0.471883,0 0.535714,0 0.04984,0 0.405557,0.01362 0.446429,0 0.03993,-0.01331 0.04936,-0.07598 0.08929,-0.08928 0.09488,-0.03163 0.262267,0.03162 0.357143,0 0.06313,-0.02105 0.115436,-0.06824 0.178571,-0.08929 0.03474,-0.01158 0.254001,0.01386 0.267857,0 0.02105,-0.02105 -0.02662,-0.07598 0,-0.08929 0.07143,-0.03571 0.196429,0.03571 0.267857,0 0.03765,-0.01882 0.05164,-0.07046 0.08929,-0.08929 0.02662,-0.01331 0.06105,0.0094 0.08929,0 0.06313,-0.02104 0.115437,-0.06824 0.178571,-0.08928 0.02824,-0.0094 0.06267,0.01331 0.08929,0 0.03765,-0.01882 0.05164,-0.07046 0.08929,-0.08929 0.02662,-0.01331 0.06266,0.01331 0.08928,0 0.07529,-0.03765 0.103279,-0.140925 0.178572,-0.178571 0.02662,-0.01331 0.06267,0.01331 0.08928,0 0.03765,-0.01882 0.05164,-0.07046 0.08929,-0.08929 0.05324,-0.02662 0.125332,0.02662 0.178572,0 0.07529,-0.03765 0.103279,-0.140925 0.178571,-0.178572 0.02662,-0.01331 0.06267,0.01331 0.08929,0 0.03765,-0.01882 0.05427,-0.06594 0.08928,-0.08928 0.05537,-0.03692 0.123199,-0.05237 0.178572,-0.08929 0.03502,-0.02335 0.05164,-0.07046 0.08929,-0.08929 0.05324,-0.02662 0.136481,0.04209 0.178571,0 0.02105,-0.02105 -0.02105,-0.06824 0,-0.08928 0.04706,-0.04706 0.115437,-0.06824 0.178571,-0.08929 0.02824,-0.0094 0.06824,0.02105 0.08929,0 0.02105,-0.02105 -0.02105,-0.06824 0,-0.08929 0.02105,-0.02105 0.06824,0.02105 0.08929,0 0.02105,-0.02105 -0.02105,-0.06824 0,-0.08929 0.02105,-0.02104 0.06824,0.02105 0.08929,0 0.02104,-0.02104 -0.02105,-0.06824 0,-0.08928 0.02104,-0.02105 0.06824,0.02105 0.08928,0 0.02105,-0.02105 -0.02105,-0.06824 0,-0.08929 0.238096,0 -0.02976,0.02976 0.08929,-0.08929 0.02105,-0.02105 0.06824,0.02105 0.08929,0 0.02996,-0.02996 -0.02996,-0.14861 0,-0.178571 0.02105,-0.02105 0.06824,0.02105 0.08928,0 0.02105,-0.02105 -0.01331,-0.06267 0,-0.08929 0.296124,-0.296123 -0.04209,0.08418 0.08929,-0.178571 0.01882,-0.03765 0.07046,-0.05164 0.08929,-0.08929 0.03571,-0.07143 -0.03571,-0.196429 0,-0.267857 0.01882,-0.03765 0.07046,-0.05164 0.08929,-0.08929 0.01331,-0.02662 0,-0.05952 0,-0.08929 0,-0.02976 0,-0.05952 0,-0.08928 0,-0.178572 0,-0.357143 0,-0.535715 0,-0.02976 0.02104,-0.06824 0,-0.08928 -0.02105,-0.02105 -0.0772,-0.0272 -0.08929,0 C 35.960252,37.888541 35.994048,37.946429 36,38"
       id="path13103"
       inkscape:connector-curvature="0"
       transform="translate(0,988.36217)" />
    <path
       style="fill:none;stroke:#000000;stroke-width:1px;stroke-linecap:butt;stroke-linejoin:miter;stroke-opacity:1"
       d="m 31,50 c -0.303571,0.08333 -0.602765,0.184677 -0.910714,0.25 -0.08734,0.01853 -0.179261,-0.01107 -0.267857,0 -0.150585,0.01882 -0.296737,0.06434 -0.446429,0.08929 -0.05871,0.0098 -0.125332,-0.02662 -0.178571,0 -0.03765,0.01882 -0.05164,0.07046 -0.08929,0.08928 -0.03973,0.01987 -0.316305,-0.01361 -0.357143,0 -0.03993,0.01331 -0.04936,0.07598 -0.08929,0.08929 -0.05647,0.01882 -0.122102,-0.01882 -0.178571,0 -0.03993,0.01331 -0.05164,0.07046 -0.08929,0.08929 -0.02662,0.01331 -0.06267,-0.01331 -0.08929,0 -0.03765,0.01882 -0.05164,0.07046 -0.08929,0.08929 -0.07143,0.03571 -0.196429,-0.03572 -0.267857,0 -0.296124,0.296123 0.08418,-0.04209 -0.178572,0.08928 -0.03765,0.01882 -0.05164,0.07046 -0.08929,0.08929 -0.05324,0.02662 -0.136481,-0.04209 -0.178571,0 -0.02105,0.02105 0.02662,0.07598 0,0.08929 -0.05324,0.02662 -0.122102,-0.01882 -0.178571,0 -0.03993,0.01331 -0.05164,0.07046 -0.08929,0.08928 -0.02662,0.01331 -0.06824,-0.02104 -0.08929,0 -0.02105,0.02105 0.02662,0.07598 0,0.08929 -0.05324,0.02662 -0.125332,-0.02662 -0.178571,0 -0.02662,0.01331 0,0.05952 0,0.08929 -0.05952,0 -0.122102,-0.01882 -0.178572,0 -0.07986,0.02662 -0.103279,0.140925 -0.178571,0.178571 -0.02662,0.01331 -0.06267,-0.01331 -0.08929,0 -0.371586,0.185793 0.09545,-0.0062 -0.08929,0.178572 -0.02104,0.02105 -0.06267,-0.01331 -0.08929,0 -0.107143,0.05357 -0.160715,0.214285 -0.267857,0.267857 -0.02662,0.01331 -0.06267,-0.01331 -0.08929,0 -0.03765,0.01882 -0.05164,0.07046 -0.08929,0.08929 -0.02662,0.01331 -0.06824,-0.02105 -0.08929,0 -0.02104,0.02104 0.01331,0.06266 0,0.08928 -0.01882,0.03765 -0.05952,0.05952 -0.08929,0.08929 -0.02976,0.02976 -0.05164,0.07046 -0.08929,0.08929 -0.02662,0.01331 -0.06267,-0.01331 -0.08929,0 -0.02371,0.01185 -0.256004,0.244151 -0.267857,0.267857 -0.01331,0.02662 0.02105,0.06824 0,0.08929 -0.02105,0.02104 -0.06824,-0.02105 -0.08929,0 -0.02104,0.02104 0.01331,0.06266 0,0.08928 -0.01882,0.03765 -0.07046,0.05164 -0.08929,0.08929 -0.01331,0.02662 0.01331,0.06267 0,0.08929 -0.01882,0.03765 -0.07046,0.05164 -0.08929,0.08928 -0.01331,0.02662 0.01331,0.06267 0,0.08929 -0.01882,0.03765 -0.07046,0.05164 -0.08929,0.08929 -0.01331,0.02662 0.01331,0.06267 0,0.08929 -0.03765,0.07529 -0.140925,0.103279 -0.178571,0.178571 -0.01614,0.03229 0,0.384327 0,0.446429 0,0.04669 -0.01174,0.333666 0,0.357142 0.01882,0.03765 0.07046,0.05164 0.08929,0.08929 0.02662,0.05324 -0.04209,0.136482 0,0.178572 0.02104,0.02104 0.06824,-0.02105 0.08929,0 0.02105,0.02104 -0.02104,0.06824 0,0.08928 0.02105,0.02105 0.06824,-0.02105 0.08929,0 0.02105,0.02105 -0.01331,0.06267 0,0.08929 0.01882,0.03765 0.07046,0.05164 0.08929,0.08929 0.01331,0.02662 -0.02105,0.06824 0,0.08928 0.02104,0.02105 0.06824,-0.02104 0.08929,0 0.02104,0.02105 -0.02104,0.06824 0,0.08929 0.02104,0.02105 0.06267,-0.01331 0.08929,0 0.03765,0.01882 0.05164,0.07046 0.08929,0.08929 0.02662,0.01331 0.06824,-0.02105 0.08929,0 0.02104,0.02105 -0.01331,0.06267 0,0.08929 0.01185,0.02371 0.24415,0.256004 0.267857,0.267857 0.02662,0.01331 0.06267,-0.01331 0.08929,0 0.03765,0.01882 0.05164,0.07046 0.08929,0.08928 0.02662,0.01331 0.06267,-0.01331 0.08929,0 0.07529,0.03765 0.103279,0.140926 0.178571,0.178572 0.04758,0.02379 0.130997,-0.02379 0.178572,0 0.296123,0.296123 -0.08418,-0.04209 0.178571,0.08929 0.03765,0.01882 0.04936,0.07597 0.08929,0.08928 0.08036,0.02679 0.1875,-0.02678 0.267857,0 0.06313,0.02105 0.115437,0.06824 0.178571,0.08929 0.0847,0.02824 0.181238,-0.02166 0.267858,0 0.06456,0.01614 0.115436,0.06824 0.178571,0.08929 0.05785,0.01928 0.37333,0 0.446429,0 0.297619,0 0.595238,0 0.892857,0 0.238095,0 0.47619,0 0.714285,0 0.04984,0 0.405557,0.01362 0.446429,0 0.03993,-0.01331 0.04936,-0.07598 0.08929,-0.08929 0.05647,-0.01882 0.122102,0.01882 0.178571,0 0.03993,-0.01331 0.05164,-0.07046 0.08929,-0.08929 0.02662,-0.01331 0.06105,0.0094 0.08929,0 0.06313,-0.02105 0.115436,-0.06824 0.178571,-0.08928 0.02823,-0.0094 0.06267,0.01331 0.08929,0 0.03765,-0.01882 0.05164,-0.07046 0.08929,-0.08929 0.02662,-0.01331 0.06824,0.02105 0.08929,0 0.02105,-0.02105 -0.02105,-0.06824 0,-0.08929 0.02105,-0.02105 0.06267,0.01331 0.08929,0 0.296123,-0.296123 -0.08418,0.04209 0.178571,-0.08929 0.03765,-0.01882 0.05952,-0.05952 0.08929,-0.08928 0.02976,-0.02976 0.07046,-0.05164 0.08929,-0.08929 0.01331,-0.02662 -0.02105,-0.06824 0,-0.08929 0.02104,-0.02105 0.06824,0.02105 0.08929,0 0.02104,-0.02105 -0.02104,-0.06824 0,-0.08928 0.02104,-0.02105 0.06824,0.02104 0.08929,0 0.03008,-0.03008 -0.03008,-0.148492 0,-0.178572 0.02105,-0.02105 0.05952,0 0.08929,0 0,-0.05952 -0.01882,-0.122102 0,-0.178571 0.01331,-0.03993 0.07046,-0.05164 0.08929,-0.08929 0.01331,-0.02662 -0.01331,-0.06267 0,-0.08929 0.01882,-0.03765 0.07046,-0.05164 0.08929,-0.08928 0.01331,-0.02662 -0.0094,-0.06105 0,-0.08929 0.02105,-0.06314 0.06824,-0.115437 0.08929,-0.178572 0.0094,-0.02823 -0.0094,-0.06105 0,-0.08928 0.02105,-0.06314 0.06824,-0.115437 0.08929,-0.178572 0.0094,-0.02823 -0.01331,-0.06267 0,-0.08928 0.01882,-0.03765 0.07046,-0.05164 0.08928,-0.08929 0.01987,-0.03973 -0.01361,-0.316305 0,-0.357143 0.01331,-0.03993 0.07046,-0.05164 0.08929,-0.08929 0.02923,-0.05846 -0.02641,-0.367193 0,-0.446428 0.02105,-0.06314 0.06824,-0.115437 0.08929,-0.178572 0.01679,-0.05037 0,-0.209187 0,-0.267857 0,-0.148809 0,-0.297619 0,-0.446428 0,-0.04021 0.01359,-0.240685 0,-0.267858 -0.01882,-0.03765 -0.07046,-0.05164 -0.08929,-0.08928 -0.01331,-0.02662 0.02105,-0.06824 0,-0.08929 -0.02105,-0.02105 -0.06824,0.02105 -0.08929,0 -0.02104,-0.02105 0.01331,-0.06267 0,-0.08929 -0.02384,-0.04769 -0.220851,-0.220851 -0.267857,-0.267857 -0.047,-0.04701 -0.220171,-0.244014 -0.267857,-0.267857 -0.02662,-0.01331 -0.05952,0 -0.08929,0 -0.02976,-0.02976 -0.05164,-0.07046 -0.08929,-0.08929 -0.02662,-0.01331 -0.06824,0.02105 -0.08929,0 -0.02105,-0.02105 0.02105,-0.06824 0,-0.08928 -0.04464,-0.04464 -0.223214,0.04464 -0.267857,0 -0.02105,-0.02105 0.02105,-0.06824 0,-0.08929 -0.02105,-0.02105 -0.05952,0 -0.08929,0 -0.208333,0 -0.416667,0 -0.625,0 -0.08929,0 -0.178571,0 -0.267857,0 -0.02976,0 -0.05952,0 -0.08929,0 -0.02976,0 -0.09588,-0.02902 -0.08929,0 C 29.853308,50.747412 29.940476,50.869048 30,51"
       id="path13105"
       inkscape:connector-curvature="0"
       transform="translate(0,988.36217)" />
  </g>
</svg>
