999
dxfrw 0.5.11
0
SECTION
2
HEADER
9
$ACADVER
1
AC1021
9
$HANDSEED
5
20000
9
$DWGCODEPAGE
3
ANSI_1252
9
$INSBASE
10
0
20
0
30
0
9
$EXTMIN
10
10000000000
20
10000000000
30
0
9
$EXTMAX
10
-10000000000
20
-10000000000
30
0
9
$LIMMIN
10
0
20
0
9
$LIMMAX
10
420
20
297
9
$ORTHOMODE
70
0
9
$LTSCALE
40
1
9
$TEXTSTYLE
7
STANDARD
9
$CLAYER
8
dot
9
$DIMASZ
40
10
9
$DIMLFAC
40
1
9
$DIMSCALE
40
1
9
$DIMEXO
40
5
9
$DIMEXE
40
5
9
$DIMTXT
40
10
9
$DIMTSZ
40
0
9
$DIMAUNIT
70
0
9
$DIMADEC
70
2
9
$DIMLUNIT
70
2
9
$DIMSTYLE
2
STANDARD
9
$DIMGAP
40
0
9
$DIMTIH
70
1
9
$LUNITS
70
2
9
$LUPREC
70
4
9
$AUNITS
70
0
9
$AUPREC
70
2
9
$SPLINESEGS
70
8
9
$GRIDMODE
70
1
9
$SNAPSTYLE
70
0
9
$GRIDUNIT
10
0
20
0
9
$PINSBASE
10
0
20
0
30
0
9
$PLIMMIN
10
0
20
0
9
$PLIMMAX
10
297
20
210
9
$INSUNITS
70
4
9
$PSVPSCALE
40
1
0
ENDSEC
0
SECTION
2
CLASSES
0
ENDSEC
0
SECTION
2
TABLES
0
TABLE
2
VPORT
5
8
330
0
100
AcDbSymbolTable
70
1
0
VPORT
5
31
330
2
100
AcDbSymbolTableRecord
100
AcDbViewportTableRecord
2
*ACTIVE
70
0
10
0
20
0
11
1
21
1
12
262.117346939
22
134.778911565
13
0
23
0
14
10
24
10
15
10
25
10
16
0
26
0
36
1
17
0
27
0
37
0
40
332.482993198
41
2.01150895141
42
50
43
0
44
0
50
0
51
0
71
0
72
100
73
1
74
3
75
0
76
1
77
0
78
0
281
0
65
1
110
0
120
0
130
0
111
1
121
0
131
0
112
0
122
1
132
0
79
0
146
0
348
10020
60
7
61
5
292
1
282
1
141
0
142
0
63
250
421
3358443
0
ENDTAB
0
TABLE
2
LTYPE
5
5
330
0
100
AcDbSymbolTable
70
4
0
LTYPE
5
14
330
5
100
AcDbSymbolTableRecord
100
AcDbLinetypeTableRecord
2
ByBlock
70
0
3

72
65
73
0
40
0
0
LTYPE
5
15
330
5
100
AcDbSymbolTableRecord
100
AcDbLinetypeTableRecord
2
ByLayer
70
0
3

72
65
73
0
40
0
0
LTYPE
5
16
330
5
100
AcDbSymbolTableRecord
100
AcDbLinetypeTableRecord
2
Continuous
70
0
3
Solid line
72
65
73
0
40
0
0
LTYPE
5
32
330
5
100
AcDbSymbolTableRecord
100
AcDbLinetypeTableRecord
2
DOT
70
0
3
Dot . . . . . . . . . . . . . . . . . . . . . .
72
65
73
2
40
6.35
49
0
74
0
49
-6.35
74
0
0
LTYPE
5
33
330
5
100
AcDbSymbolTableRecord
100
AcDbLinetypeTableRecord
2
DOT2
70
0
3
Dot (.5x) .....................................
72
65
73
2
40
3.175
49
0
74
0
49
-3.175
74
0
0
LTYPE
5
34
330
5
100
AcDbSymbolTableRecord
100
AcDbLinetypeTableRecord
2
DOTX2
70
0
3
Dot (2x) .  .  .  .  .  .  .  .  .  .  .  .  .
72
65
73
2
40
12.7
49
0
74
0
49
-12.7
74
0
0
LTYPE
5
35
330
5
100
AcDbSymbolTableRecord
100
AcDbLinetypeTableRecord
2
DASHED
70
0
3
Dot . . . . . . . . . . . . . . . . . . . . . .
72
65
73
2
40
19.05
49
12.7
74
0
49
-6.35
74
0
0
LTYPE
5
36
330
5
100
AcDbSymbolTableRecord
100
AcDbLinetypeTableRecord
2
DASHED2
70
0
3
Dashed (.5x) _ _ _ _ _ _ _ _ _ _ _ _ _ _ _ _ _
72
65
73
2
40
9.525
49
6.35
74
0
49
-3.175
74
0
0
LTYPE
5
37
330
5
100
AcDbSymbolTableRecord
100
AcDbLinetypeTableRecord
2
DASHEDX2
70
0
3
Dashed (2x) ____  ____  ____  ____  ____  ___
72
65
73
2
40
38.1
49
25.4
74
0
49
-12.7
74
0
0
LTYPE
5
38
330
5
100
AcDbSymbolTableRecord
100
AcDbLinetypeTableRecord
2
DASHDOT
70
0
3
Dash dot __ . __ . __ . __ . __ . __ . __ . __
72
65
73
4
40
25.4
49
12.7
74
0
49
-6.35
74
0
49
0
74
0
49
-6.35
74
0
0
LTYPE
5
39
330
5
100
AcDbSymbolTableRecord
100
AcDbLinetypeTableRecord
2
DASHDOT2
70
0
3
Dash dot (.5x) _._._._._._._._._._._._._._._.
72
65
73
4
40
12.7
49
6.35
74
0
49
-3.175
74
0
49
0
74
0
49
-3.175
74
0
0
LTYPE
5
3A
330
5
100
AcDbSymbolTableRecord
100
AcDbLinetypeTableRecord
2
DASHDOTX2
70
0
3
Dash dot (2x) ____  .  ____  .  ____  .  ___
72
65
73
4
40
50.8
49
25.4
74
0
49
-12.7
74
0
49
0
74
0
49
-12.7
74
0
0
LTYPE
5
3B
330
5
100
AcDbSymbolTableRecord
100
AcDbLinetypeTableRecord
2
DIVIDE
70
0
3
Divide ____ . . ____ . . ____ . . ____ . . ____
72
65
73
6
40
31.75
49
12.7
74
0
49
-6.35
74
0
49
0
74
0
49
-6.35
74
0
49
0
74
0
49
-6.35
74
0
0
LTYPE
5
3C
330
5
100
AcDbSymbolTableRecord
100
AcDbLinetypeTableRecord
2
DIVIDE2
70
0
3
Divide (.5x) __..__..__..__..__..__..__..__.._
72
65
73
6
40
15.875
49
6.35
74
0
49
-3.175
74
0
49
0
74
0
49
-3.175
74
0
49
0
74
0
49
-3.175
74
0
0
LTYPE
5
3D
330
5
100
AcDbSymbolTableRecord
100
AcDbLinetypeTableRecord
2
DIVIDEX2
70
0
3
Divide (2x) ________  .  .  ________  .  .  _
72
65
73
6
40
63.5
49
25.4
74
0
49
-12.7
74
0
49
0
74
0
49
-12.7
74
0
49
0
74
0
49
-12.7
74
0
0
LTYPE
5
3E
330
5
100
AcDbSymbolTableRecord
100
AcDbLinetypeTableRecord
2
BORDER
70
0
3
Border __ __ . __ __ . __ __ . __ __ . __ __ .
72
65
73
6
40
44.45
49
12.7
74
0
49
-6.35
74
0
49
12.7
74
0
49
-6.35
74
0
49
0
74
0
49
-6.35
74
0
0
LTYPE
5
3F
330
5
100
AcDbSymbolTableRecord
100
AcDbLinetypeTableRecord
2
BORDER2
70
0
3
Border (.5x) __.__.__.__.__.__.__.__.__.__.__.
72
65
73
6
40
22.225
49
6.35
74
0
49
-3.175
74
0
49
6.35
74
0
49
-3.175
74
0
49
0
74
0
49
-3.175
74
0
0
LTYPE
5
40
330
5
100
AcDbSymbolTableRecord
100
AcDbLinetypeTableRecord
2
BORDERX2
70
0
3
Border (2x) ____  ____  .  ____  ____  .  ___
72
65
73
6
40
88.9
49
25.4
74
0
49
-12.7
74
0
49
25.4
74
0
49
-12.7
74
0
49
0
74
0
49
-12.7
74
0
0
LTYPE
5
41
330
5
100
AcDbSymbolTableRecord
100
AcDbLinetypeTableRecord
2
CENTER
70
0
3
Center ____ _ ____ _ ____ _ ____ _ ____ _ ____
72
65
73
4
40
50.8
49
31.75
74
0
49
-6.35
74
0
49
6.35
74
0
49
-6.35
74
0
0
LTYPE
5
42
330
5
100
AcDbSymbolTableRecord
100
AcDbLinetypeTableRecord
2
CENTER2
70
0
3
Center (.5x) ___ _ ___ _ ___ _ ___ _ ___ _ ___
72
65
73
4
40
28.575
49
19.05
74
0
49
-3.175
74
0
49
3.175
74
0
49
-3.175
74
0
0
LTYPE
5
43
330
5
100
AcDbSymbolTableRecord
100
AcDbLinetypeTableRecord
2
CENTERX2
70
0
3
Center (2x) ________  __  ________  __  _____
72
65
73
4
40
101.6
49
63.5
74
0
49
-12.7
74
0
49
12.7
74
0
49
-12.7
74
0
0
ENDTAB
0
TABLE
2
LAYER
5
2
330
0
100
AcDbSymbolTable
70
1
0
LAYER
5
10
330
2
100
AcDbSymbolTableRecord
100
AcDbLayerTableRecord
2
0
70
0
62
7
6
CONTINUOUS
370
100
390
F
0
LAYER
5
44
330
2
100
AcDbSymbolTableRecord
100
AcDbLayerTableRecord
2
blue
70
0
62
5
6
CONTINUOUS
370
100
390
F
0
LAYER
5
45
330
2
100
AcDbSymbolTableRecord
100
AcDbLayerTableRecord
2
dimension
70
0
62
96
420
32768
6
CONTINUOUS
370
140
390
F
0
LAYER
5
46
330
2
100
AcDbSymbolTableRecord
100
AcDbLayerTableRecord
2
dot
70
0
62
7
6
DOT2
370
50
390
F
0
LAYER
5
47
330
2
100
AcDbSymbolTableRecord
100
AcDbLayerTableRecord
2
outline
70
0
62
7
6
CONTINUOUS
370
200
390
F
0
LAYER
5
48
330
2
100
AcDbSymbolTableRecord
100
AcDbLayerTableRecord
2
symmetry
70
0
62
7
6
DASHDOT
370
50
390
F
0
ENDTAB
0
TABLE
2
STYLE
5
3
330
0
100
AcDbSymbolTable
70
3
0
STYLE
5
49
330
2
100
AcDbSymbolTableRecord
100
AcDbTextStyleTableRecord
2
opengosttypea-regular
70
0
40
0
41
1
50
0
71
0
42
1
3
opengosttypea-regular
4

0
STYLE
5
4A
330
2
100
AcDbSymbolTableRecord
100
AcDbTextStyleTableRecord
2
standard
70
0
40
0
41
1
50
0
71
0
42
1
3
standard
4

0
ENDTAB
0
TABLE
2
VIEW
5
6
330
0
100
AcDbSymbolTable
70
0
0
ENDTAB
0
TABLE
2
UCS
5
7
330
0
100
AcDbSymbolTable
70
0
0
ENDTAB
0
TABLE
2
APPID
5
9
330
0
100
AcDbSymbolTable
70
1
0
APPID
5
12
330
9
100
AcDbSymbolTableRecord
100
AcDbRegAppTableRecord
2
ACAD
70
0
0
ENDTAB
0
TABLE
2
DIMSTYLE
5
A
330
0
100
AcDbSymbolTable
70
1
100
AcDbDimStyleTable
71
1
0
DIMSTYLE
105
4B
330
A
100
AcDbSymbolTableRecord
100
AcDbDimStyleTableRecord
2
Standard
70
0
40
1
41
10
42
5
43
0.38
44
5
45
0
46
0
47
0
48
0
140
10
141
0.09
142
0
143
25.4
144
1
145
0
146
1
147
0
148
0
71
0
72
0
73
0
74
1
75
0
76
0
77
0
78
0
79
0
170
0
171
2
172
0
173
0
174
0
175
0
176
0
177
0
178
0
179
0
271
4
272
4
273
2
274
2
275
0
276
0
277
2
278
46
279
0
280
0
281
0
282
0
283
1
284
0
285
0
286
0
288
0
289
3
340
Standard
341

371
-2
372
-2
0
ENDTAB
0
TABLE
2
BLOCK_RECORD
5
1
330
0
100
AcDbSymbolTable
70
2
0
BLOCK_RECORD
5
1F
330
1
100
AcDbSymbolTableRecord
100
AcDbBlockTableRecord
2
*Model_Space
70
0
280
1
281
0
0
BLOCK_RECORD
5
1E
330
1
100
AcDbSymbolTableRecord
100
AcDbBlockTableRecord
2
*Paper_Space
70
0
280
1
281
0
0
BLOCK_RECORD
5
4C
330
1
100
AcDbSymbolTableRecord
100
AcDbBlockTableRecord
2
*D1
70
0
280
1
281
0
0
BLOCK_RECORD
5
4F
330
1
100
AcDbSymbolTableRecord
100
AcDbBlockTableRecord
2
*D3
70
0
280
1
281
0
0
BLOCK_RECORD
5
52
330
1
100
AcDbSymbolTableRecord
100
AcDbBlockTableRecord
2
*D2
70
0
280
1
281
0
0
BLOCK_RECORD
5
55
330
1
100
AcDbSymbolTableRecord
100
AcDbBlockTableRecord
2
Coords_SideView_0
70
0
280
1
281
0
0
BLOCK_RECORD
5
58
330
1
100
AcDbSymbolTableRecord
100
AcDbBlockTableRecord
2
Coords_SideView_1
70
0
280
1
281
0
0
BLOCK_RECORD
5
5B
330
1
100
AcDbSymbolTableRecord
100
AcDbBlockTableRecord
2
Coords_SideView_2
70
0
280
1
281
0
0
BLOCK_RECORD
5
5E
330
1
100
AcDbSymbolTableRecord
100
AcDbBlockTableRecord
2
Coords_SideView_3
70
0
280
1
281
0
0
BLOCK_RECORD
5
61
330
1
100
AcDbSymbolTableRecord
100
AcDbBlockTableRecord
2
Coords_TopView_0
70
0
280
1
281
0
0
BLOCK_RECORD
5
64
330
1
100
AcDbSymbolTableRecord
100
AcDbBlockTableRecord
2
Flange_1
70
0
280
1
281
0
0
BLOCK_RECORD
5
67
330
1
100
AcDbSymbolTableRecord
100
AcDbBlockTableRecord
2
Flange_2
70
0
280
1
281
0
0
BLOCK_RECORD
5
6A
330
1
100
AcDbSymbolTableRecord
100
AcDbBlockTableRecord
2
Flange_3
70
0
280
1
281
0
0
BLOCK_RECORD
5
6D
330
1
100
AcDbSymbolTableRecord
100
AcDbBlockTableRecord
2
Flange_4
70
0
280
1
281
0
0
BLOCK_RECORD
5
70
330
1
100
AcDbSymbolTableRecord
100
AcDbBlockTableRecord
2
Basepoint
70
0
280
1
281
0
0
BLOCK_RECORD
5
73
330
1
100
AcDbSymbolTableRecord
100
AcDbBlockTableRecord
2
Flangepoint
70
0
280
1
281
0
0
BLOCK_RECORD
5
76
330
1
100
AcDbSymbolTableRecord
100
AcDbBlockTableRecord
2
Wall_Strength
70
0
280
1
281
0
0
ENDTAB
0
ENDSEC
0
SECTION
2
BLOCKS
0
BLOCK
5
20
330
1F
100
AcDbEntity
8
0
100
AcDbBlockBegin
2
*Model_Space
70
0
10
0
20
0
30
0
3
*Model_Space
1

0
ENDBLK
5
21
330
1F
100
AcDbEntity
8
0
100
AcDbBlockEnd
0
BLOCK
5
1C
330
1B
100
AcDbEntity
8
0
100
AcDbBlockBegin
2
*Paper_Space
70
0
10
0
20
0
30
0
3
*Paper_Space
1

0
ENDBLK
5
1D
330
1F
100
AcDbEntity
8
0
100
AcDbBlockEnd
0
BLOCK
5
4D
330
4C
100
AcDbEntity
8
0
100
AcDbBlockBegin
2
*D1
70
1
10
0
20
0
3
*D1
1

0
LINE
5
79
100
AcDbEntity
8
dimension
6
CONTINUOUS
62
7
370
0
100
AcDbLine
10
45
20
65
11
45
21
55
0
LINE
5
7A
100
AcDbEntity
8
dimension
6
CONTINUOUS
62
7
370
0
100
AcDbLine
10
155
20
65
11
155
21
55
0
LINE
5
7B
100
AcDbEntity
8
dimension
6
CONTINUOUS
62
7
370
0
100
AcDbLine
10
45
20
60
11
99.4444444444
21
60
0
SOLID
5
7C
100
AcDbEntity
8
dimension
6
CONTINUOUS
62
7
370
0
100
AcDbTrace
10
45
20
60
30
0
11
55
21
61.6651386311
31
0
12
55
22
58.3348613689
32
0
13
55
23
58.3348613689
33
0
0
SOLID
5
7D
100
AcDbEntity
8
dimension
6
CONTINUOUS
62
7
370
0
100
AcDbTrace
10
155
20
60
30
0
11
145
21
58.3348613689
31
0
12
145
22
61.6651386311
32
0
13
145
23
61.6651386311
33
0
0
LINE
5
7E
100
AcDbEntity
8
dimension
6
CONTINUOUS
62
7
370
0
100
AcDbLine
10
100.555555556
20
60
11
155
21
60
0
MTEXT
5
7F
100
AcDbEntity
8
dimension
6
CONTINUOUS
62
7
370
0
100
AcDbMText
10
100
20
60
30
0
40
10
41
1.11111111111
71
5
72
1
1
l
7
standard
210
0
220
0
230
1
50
0
73
2
44
1
0
ENDBLK
5
4E
330
4C
100
AcDbEntity
8
0
100
AcDbBlockEnd
0
BLOCK
5
50
330
4F
100
AcDbEntity
8
0
100
AcDbBlockBegin
2
*D3
70
1
10
0
20
0
3
*D3
1

0
LINE
5
80
100
AcDbEntity
8
dimension
6
CONTINUOUS
62
7
370
0
100
AcDbLine
10
40
20
180
11
18
21
180
0
LINE
5
81
100
AcDbEntity
8
dimension
6
CONTINUOUS
62
7
370
0
100
AcDbLine
10
40
20
70
11
18
21
70
0
LINE
5
82
100
AcDbEntity
8
dimension
6
CONTINUOUS
62
7
370
0
100
AcDbLine
10
23
20
180
11
23
21
70
0
SOLID
5
83
100
AcDbEntity
8
dimension
6
CONTINUOUS
62
7
370
0
100
AcDbTrace
10
23
20
180
30
0
11
24.6651386311
21
170
31
0
12
21.3348613689
22
170
32
0
13
21.3348613689
23
170
33
0
0
SOLID
5
84
100
AcDbEntity
8
dimension
6
CONTINUOUS
62
7
370
0
100
AcDbTrace
10
23
20
70
30
0
11
21.3348613689
21
80
31
0
12
24.6651386311
22
80
32
0
13
24.6651386311
23
80
33
0
0
MTEXT
5
85
100
AcDbEntity
8
dimension
6
CONTINUOUS
62
7
370
0
100
AcDbMText
10
15
20
125
30
0
40
10
41
4.44444444445
71
5
72
1
1
g
7
standard
210
0
220
0
230
1
50
0
73
2
44
1
0
ENDBLK
5
51
330
4F
100
AcDbEntity
8
0
100
AcDbBlockEnd
0
BLOCK
5
53
330
52
100
AcDbEntity
8
0
100
AcDbBlockBegin
2
*D2
70
1
10
0
20
0
3
*D2
1

0
LINE
5
86
100
AcDbEntity
8
dimension
6
CONTINUOUS
62
7
370
0
100
AcDbLine
10
240
20
120
11
220
21
120
0
LINE
5
87
100
AcDbEntity
8
dimension
6
CONTINUOUS
62
7
370
0
100
AcDbLine
10
240
20
140
11
220
21
140
0
LINE
5
88
100
AcDbEntity
8
dimension
6
CONTINUOUS
62
7
370
0
100
AcDbLine
10
225
20
100
11
225
21
160
0
SOLID
5
89
100
AcDbEntity
8
dimension
6
CONTINUOUS
62
7
370
0
100
AcDbTrace
10
225
20
120
30
0
11
226.665138631
21
110
31
0
12
223.334861369
22
110
32
0
13
223.334861369
23
110
33
0
0
SOLID
5
8A
100
AcDbEntity
8
dimension
6
CONTINUOUS
62
7
370
0
100
AcDbTrace
10
225
20
140
30
0
11
223.334861369
21
150
31
0
12
226.665138631
22
150
32
0
13
226.665138631
23
150
33
0
0
MTEXT
5
8B
100
AcDbEntity
8
dimension
6
CONTINUOUS
62
7
370
0
100
AcDbMText
10
220
20
130
30
0
40
10
41
4.44444444444
71
5
72
1
1
h
7
standard
210
0
220
0
230
1
50
0
73
2
44
1
0
ENDBLK
5
54
330
52
100
AcDbEntity
8
0
100
AcDbBlockEnd
0
BLOCK
5
56
330
55
100
AcDbEntity
8
0
100
AcDbBlockBegin
2
Coords_SideView_0
70
0
10
0
20
0
3
Coords_SideView_0
1

0
LINE
5
8C
100
AcDbEntity
8
0
6
ByLayer
62
256
370
-1
100
AcDbLine
10
0
20
0
11
0
21
20
0
LINE
5
8D
100
AcDbEntity
8
0
6
ByLayer
62
256
370
-1
100
AcDbLine
10
20
20
0
11
15.6698729811
21
2.5
0
LINE
5
8E
100
AcDbEntity
8
0
6
ByLayer
62
256
370
-1
100
AcDbLine
10
20
20
0
11
15.6698729811
21
-2.5
0
LINE
5
8F
100
AcDbEntity
8
0
6
ByLayer
62
256
370
-1
100
AcDbLine
10
0
20
0
11
20
21
0
0
LINE
5
90
100
AcDbEntity
8
0
6
ByLayer
62
256
370
-1
100
AcDbLine
10
0
20
20
11
-2.5
21
15.6698729811
0
LINE
5
91
100
AcDbEntity
8
0
6
ByLayer
62
256
370
-1
100
AcDbLine
10
0
20
20
11
2.5
21
15.6698729811
0
LINE
5
92
100
AcDbEntity
8
0
6
ByLayer
62
256
370
-1
100
AcDbLine
10
-2.5
20
2.5
11
2.5
21
-2.5
0
LINE
5
93
100
AcDbEntity
8
0
6
ByLayer
62
256
370
-1
100
AcDbLine
10
2.5
20
2.5
11
-2.5
21
-2.5
0
TEXT
5
94
100
AcDbEntity
8
0
6
ByLayer
62
256
370
-1
100
AcDbText
10
0
20
20
30
0
40
5
1
Z
50
0
41
1
51
0
7
opengosttypea-regular
71
0
72
1
11
0
21
20
31
0
210
0
220
0
230
1
100
AcDbText
73
1
0
TEXT
5
95
100
AcDbEntity
8
0
6
ByLayer
62
256
370
-1
100
AcDbText
10
21
20
0
30
0
40
5
1
X
50
0
41
1
51
0
7
opengosttypea-regular
71
0
11
21
21
0
31
0
210
0
220
0
230
1
100
AcDbText
73
2
0
TEXT
5
96
100
AcDbEntity
8
0
6
ByLayer
62
256
370
-1
100
AcDbText
10
4.5
20
4.5
30
0
40
5
1
Y
50
0
41
1
51
0
7
opengosttypea-regular
71
0
210
0
220
0
230
1
100
AcDbText
0
ENDBLK
5
57
330
55
100
AcDbEntity
8
0
100
AcDbBlockEnd
0
BLOCK
5
59
330
58
100
AcDbEntity
8
0
100
AcDbBlockBegin
2
Coords_SideView_1
70
0
10
0
20
0
3
Coords_SideView_1
1

0
HATCH
5
97
100
AcDbEntity
8
0
6
ByLayer
62
256
370
-1
100
AcDbHatch
10
0
20
0
30
0
210
0
220
0
230
1
2
SOLID
70
1
71
0
91
1
92
0
93
1
72
2
10
0
20
0
40
2
50
0
51
360
73
1
97
0
75
0
76
1
98
0
0
LINE
5
98
100
AcDbEntity
8
0
6
ByLayer
62
256
370
-1
100
AcDbLine
10
0
20
0
11
0
21
20
0
LINE
5
99
100
AcDbEntity
8
0
6
ByLayer
62
256
370
-1
100
AcDbLine
10
20
20
0
11
15.6698729811
21
2.5
0
LINE
5
9A
100
AcDbEntity
8
0
6
ByLayer
62
256
370
-1
100
AcDbLine
10
20
20
0
11
15.6698729811
21
-2.5
0
LINE
5
9B
100
AcDbEntity
8
0
6
ByLayer
62
256
370
-1
100
AcDbLine
10
0
20
0
11
20
21
0
0
LINE
5
9C
100
AcDbEntity
8
0
6
ByLayer
62
256
370
-1
100
AcDbLine
10
0
20
20
11
-2.5
21
15.6698729811
0
LINE
5
9D
100
AcDbEntity
8
0
6
ByLayer
62
256
370
-1
100
AcDbLine
10
0
20
20
11
2.5
21
15.6698729811
0
TEXT
5
9E
100
AcDbEntity
8
0
6
ByLayer
62
256
370
-1
100
AcDbText
10
0
20
20
30
0
40
5
1
Z
50
0
41
1
51
0
7
opengosttypea-regular
71
0
72
1
11
0
21
20
31
0
210
0
220
0
230
1
100
AcDbText
73
1
0
TEXT
5
9F
100
AcDbEntity
8
0
6
ByLayer
62
256
370
-1
100
AcDbText
10
21
20
0
30
0
40
5
1
Y
50
0
41
1
51
0
7
opengosttypea-regular
71
0
11
21
21
0
31
0
210
0
220
0
230
1
100
AcDbText
73
2
0
TEXT
5
A0
100
AcDbEntity
8
0
6
ByLayer
62
256
370
-1
100
AcDbText
10
4.5
20
4.5
30
0
40
5
1
X
50
0
41
1
51
0
7
opengosttypea-regular
71
0
210
0
220
0
230
1
100
AcDbText
0
ENDBLK
5
5A
330
58
100
AcDbEntity
8
0
100
AcDbBlockEnd
0
BLOCK
5
5C
330
5B
100
AcDbEntity
8
0
100
AcDbBlockBegin
2
Coords_SideView_2
70
0
10
0
20
0
3
Coords_SideView_2
1

0
HATCH
5
A1
100
AcDbEntity
8
0
6
ByLayer
62
256
370
-1
100
AcDbHatch
10
0
20
0
30
0
210
0
220
0
230
1
2
SOLID
70
1
71
0
91
1
92
0
93
1
72
2
10
0
20
0
40
2
50
0
51
360
73
1
97
0
75
0
76
1
98
0
0
LINE
5
A2
100
AcDbEntity
8
0
6
ByLayer
62
256
370
-1
100
AcDbLine
10
0
20
0
11
0
21
20
0
LINE
5
A3
100
AcDbEntity
8
0
6
ByLayer
62
256
370
-1
100
AcDbLine
10
-20
20
0
11
-15.6698729811
21
2.5
0
LINE
5
A4
100
AcDbEntity
8
0
6
ByLayer
62
256
370
-1
100
AcDbLine
10
-20
20
0
11
-15.6698729811
21
-2.5
0
LINE
5
A5
100
AcDbEntity
8
0
6
ByLayer
62
256
370
-1
100
AcDbLine
10
0
20
0
11
-20
21
0
0
LINE
5
A6
100
AcDbEntity
8
0
6
ByLayer
62
256
370
-1
100
AcDbLine
10
0
20
20
11
2.5
21
15.6698729811
0
LINE
5
A7
100
AcDbEntity
8
0
6
ByLayer
62
256
370
-1
100
AcDbLine
10
0
20
20
11
-2.5
21
15.6698729811
0
TEXT
5
A8
100
AcDbEntity
8
0
6
ByLayer
62
256
370
-1
100
AcDbText
10
0
20
20
30
0
40
5
1
Z
50
0
41
1
51
0
7
opengosttypea-regular
71
0
72
1
11
0
21
20
31
0
210
0
220
0
230
1
100
AcDbText
73
1
0
TEXT
5
A9
100
AcDbEntity
8
0
6
ByLayer
62
256
370
-1
100
AcDbText
10
-21
20
0
30
0
40
5
1
X
50
360
41
1
51
0
7
opengosttypea-regular
71
0
72
2
11
-21
21
0
31
0
210
0
220
0
230
1
100
AcDbText
73
2
0
TEXT
5
AA
100
AcDbEntity
8
0
6
ByLayer
62
256
370
-1
100
AcDbText
10
-4.5
20
4.5
30
0
40
5
1
Y
50
360
41
1
51
0
7
opengosttypea-regular
71
0
72
2
11
-4.5
21
4.5
31
0
210
0
220
0
230
1
100
AcDbText
0
ENDBLK
5
5D
330
5B
100
AcDbEntity
8
0
100
AcDbBlockEnd
0
BLOCK
5
5F
330
5E
100
AcDbEntity
8
0
100
AcDbBlockBegin
2
Coords_SideView_3
70
0
10
0
20
0
3
Coords_SideView_3
1

0
LINE
5
AB
100
AcDbEntity
8
0
6
ByLayer
62
256
370
-1
100
AcDbLine
10
0
20
0
11
0
21
20
0
LINE
5
AC
100
AcDbEntity
8
0
6
ByLayer
62
256
370
-1
100
AcDbLine
10
-20
20
0
11
-15.6698729811
21
2.5
0
LINE
5
AD
100
AcDbEntity
8
0
6
ByLayer
62
256
370
-1
100
AcDbLine
10
-20
20
0
11
-15.6698729811
21
-2.5
0
LINE
5
AE
100
AcDbEntity
8
0
6
ByLayer
62
256
370
-1
100
AcDbLine
10
0
20
0
11
-20
21
0
0
LINE
5
AF
100
AcDbEntity
8
0
6
ByLayer
62
256
370
-1
100
AcDbLine
10
0
20
20
11
2.5
21
15.6698729811
0
LINE
5
B0
100
AcDbEntity
8
0
6
ByLayer
62
256
370
-1
100
AcDbLine
10
0
20
20
11
-2.5
21
15.6698729811
0
LINE
5
B1
100
AcDbEntity
8
0
6
ByLayer
62
256
370
-1
100
AcDbLine
10
-2.5
20
2.5
11
2.5
21
-2.5
0
LINE
5
B2
100
AcDbEntity
8
0
6
ByLayer
62
256
370
-1
100
AcDbLine
10
2.5
20
2.5
11
-2.5
21
-2.5
0
TEXT
5
B3
100
AcDbEntity
8
0
6
ByLayer
62
256
370
-1
100
AcDbText
10
0
20
20
30
0
40
5
1
Z
50
0
41
1
51
0
7
opengosttypea-regular
71
0
72
1
11
0
21
20
31
0
210
0
220
0
230
1
100
AcDbText
73
1
0
TEXT
5
B4
100
AcDbEntity
8
0
6
ByLayer
62
256
370
-1
100
AcDbText
10
-21
20
0
30
0
40
5
1
Y
50
360
41
1
51
0
7
opengosttypea-regular
71
0
72
2
11
-21
21
0
31
0
210
0
220
0
230
1
100
AcDbText
73
2
0
TEXT
5
B5
100
AcDbEntity
8
0
6
ByLayer
62
256
370
-1
100
AcDbText
10
-4.5
20
4.5
30
0
40
5
1
X
50
360
41
1
51
0
7
opengosttypea-regular
71
0
72
2
11
-4.5
21
4.5
31
0
210
0
220
0
230
1
100
AcDbText
0
ENDBLK
5
60
330
5E
100
AcDbEntity
8
0
100
AcDbBlockEnd
0
BLOCK
5
62
330
61
100
AcDbEntity
8
0
100
AcDbBlockBegin
2
Coords_TopView_0
70
0
10
0
20
0
3
Coords_TopView_0
1

0
HATCH
5
B6
100
AcDbEntity
8
0
6
ByLayer
62
256
370
-1
100
AcDbHatch
10
0
20
0
30
0
210
0
220
0
230
1
2
SOLID
70
1
71
0
91
1
92
0
93
1
72
2
10
0
20
0
40
2
50
0
51
360
73
1
97
0
75
0
76
1
98
0
0
LINE
5
B7
100
AcDbEntity
8
0
6
ByLayer
62
256
370
-1
100
AcDbLine
10
0
20
0
11
0
21
20
0
LINE
5
B8
100
AcDbEntity
8
0
6
ByLayer
62
256
370
-1
100
AcDbLine
10
0
20
20
11
2.5
21
15.6698729811
0
LINE
5
B9
100
AcDbEntity
8
0
6
ByLayer
62
256
370
-1
100
AcDbLine
10
0
20
20
11
-2.5
21
15.6698729811
0
LINE
5
BA
100
AcDbEntity
8
0
6
ByLayer
62
256
370
-1
100
AcDbLine
10
20
20
0
11
15.6698729811
21
2.5
0
LINE
5
BB
100
AcDbEntity
8
0
6
ByLayer
62
256
370
-1
100
AcDbLine
10
20
20
0
11
15.6698729811
21
-2.5
0
LINE
5
BC
100
AcDbEntity
8
0
6
ByLayer
62
256
370
-1
100
AcDbLine
10
0
20
0
11
20
21
0
0
TEXT
5
BD
100
AcDbEntity
8
0
6
ByLayer
62
256
370
-1
100
AcDbText
10
21
20
0
30
0
40
5
1
X
50
360
41
1
51
0
7
opengosttypea-regular
71
0
11
21
21
0
31
0
210
0
220
0
230
1
100
AcDbText
73
2
0
TEXT
5
BE
100
AcDbEntity
8
0
6
ByLayer
62
256
370
-1
100
AcDbText
10
4.5
20
4.5
30
0
40
5
1
Z
50
360
41
1
51
0
7
opengosttypea-regular
71
0
210
0
220
0
230
1
100
AcDbText
0
TEXT
5
BF
100
AcDbEntity
8
0
6
ByLayer
62
256
370
-1
100
AcDbText
10
0
20
20
30
0
40
5
1
Y
50
0
41
1
51
0
7
opengosttypea-regular
71
0
72
1
11
0
21
20
31
0
210
0
220
0
230
1
100
AcDbText
73
1
0
ENDBLK
5
63
330
61
100
AcDbEntity
8
0
100
AcDbBlockEnd
0
BLOCK
5
65
330
64
100
AcDbEntity
8
0
100
AcDbBlockBegin
2
Flange_1
70
0
10
0
20
0
3
Flange_1
1

0
MTEXT
5
C0
100
AcDbEntity
8
blue
6
ByLayer
62
256
370
-1
100
AcDbMText
10
0
20
10
30
0
40
10
41
10
71
1
72
1
1
F1
7
standard
210
0
220
0
230
1
50
0
73
2
44
1
0
ENDBLK
5
66
330
64
100
AcDbEntity
8
0
100
AcDbBlockEnd
0
BLOCK
5
68
330
67
100
AcDbEntity
8
0
100
AcDbBlockBegin
2
Flange_2
70
0
10
0
20
0
3
Flange_2
1

0
MTEXT
5
C1
100
AcDbEntity
8
blue
6
ByLayer
62
256
370
-1
100
AcDbMText
10
0
20
10
30
0
40
10
41
12.2222222222
71
1
72
1
1
F2
7
standard
210
0
220
0
230
1
50
0
73
2
44
1
0
ENDBLK
5
69
330
67
100
AcDbEntity
8
0
100
AcDbBlockEnd
0
BLOCK
5
6B
330
6A
100
AcDbEntity
8
0
100
AcDbBlockBegin
2
Flange_3
70
0
10
0
20
0
3
Flange_3
1

0
MTEXT
5
C2
100
AcDbEntity
8
blue
6
ByLayer
62
256
370
-1
100
AcDbMText
10
0
20
10
30
0
40
10
41
12.2222222222
71
1
72
1
1
F3
7
standard
210
0
220
0
230
1
50
0
73
2
44
1
0
ENDBLK
5
6C
330
6A
100
AcDbEntity
8
0
100
AcDbBlockEnd
0
BLOCK
5
6E
330
6D
100
AcDbEntity
8
0
100
AcDbBlockBegin
2
Flange_4
70
0
10
0
20
0
3
Flange_4
1

0
MTEXT
5
C3
100
AcDbEntity
8
blue
6
ByLayer
62
256
370
-1
100
AcDbMText
10
0
20
10
30
0
40
10
41
13.3333333333
71
1
72
1
1
F4
7
standard
210
0
220
0
230
1
50
0
73
2
44
1
0
ENDBLK
5
6F
330
6D
100
AcDbEntity
8
0
100
AcDbBlockEnd
0
BLOCK
5
71
330
70
100
AcDbEntity
8
0
100
AcDbBlockBegin
2
Basepoint
70
0
10
0
20
0
3
Basepoint
1

0
LINE
5
C4
100
AcDbEntity
8
0
6
ByLayer
62
256
370
-1
100
AcDbLine
10
-5
20
5
11
5
21
5
0
LINE
5
C5
100
AcDbEntity
8
0
6
ByLayer
62
256
370
-1
100
AcDbLine
10
5
20
5
11
5
21
-5
0
LINE
5
C6
100
AcDbEntity
8
0
6
ByLayer
62
256
370
-1
100
AcDbLine
10
5
20
-5
11
-5
21
-5
0
LINE
5
C7
100
AcDbEntity
8
0
6
ByLayer
62
256
370
-1
100
AcDbLine
10
-5
20
-5
11
-5
21
5
0
ENDBLK
5
72
330
70
100
AcDbEntity
8
0
100
AcDbBlockEnd
0
BLOCK
5
74
330
73
100
AcDbEntity
8
0
100
AcDbBlockBegin
2
Flangepoint
70
0
10
0
20
0
3
Flangepoint
1

0
HATCH
5
C8
100
AcDbEntity
8
blue
6
ByLayer
62
256
370
-1
100
AcDbHatch
10
0
20
0
30
0
210
0
220
0
230
1
2
SOLID
70
1
71
0
91
1
92
0
93
1
72
2
10
0
20
0
40
2
50
0
51
360
73
1
97
0
75
0
76
1
98
0
0
CIRCLE
5
C9
100
AcDbEntity
8
blue
6
ByLayer
62
256
370
-1
100
AcDbCircle
10
0
20
0
40
2
0
ENDBLK
5
75
330
73
100
AcDbEntity
8
0
100
AcDbBlockEnd
0
BLOCK
5
77
330
76
100
AcDbEntity
8
0
100
AcDbBlockBegin
2
Wall_Strength
70
0
10
0
20
0
3
Wall_Strength
1

0
MTEXT
5
CA
100
AcDbEntity
8
dimension
6
ByLayer
62
256
370
-1
100
AcDbMText
10
0
20
0
30
0
40
10
41
120.281592641
71
1
72
1
1
s = wall strength
7
standard
210
0
220
0
230
1
50
0
73
2
44
1
0
ENDBLK
5
78
330
76
100
AcDbEntity
8
0
100
AcDbBlockEnd
0
ENDSEC
0
SECTION
2
ENTITIES
0
LINE
5
CB
100
AcDbEntity
8
0
6
ByLayer
62
256
370
-1
100
AcDbLine
10
0
20
0
11
400
21
0
0
LINE
5
CC
100
AcDbEntity
8
0
6
ByLayer
62
256
370
-1
100
AcDbLine
10
400
20
0
11
400
21
200
0
LINE
5
CD
100
AcDbEntity
8
0
6
ByLayer
62
256
370
-1
100
AcDbLine
10
400
20
200
11
0
21
200
0
LINE
5
CE
100
AcDbEntity
8
0
6
ByLayer
62
256
370
-1
100
AcDbLine
10
0
20
200
11
0
21
0
0
INSERT
5
CF
100
AcDbEntity
8
0
6
ByLayer
62
256
370
-1
100
AcDbBlockReference
2
Coords_TopView_0
10
45
20
10
30
0
41
1
42
1
43
0
50
0
70
1
71
1
44
0
45
0
0
LINE
5
D0
100
AcDbEntity
8
outline
6
ByLayer
62
256
370
-1
100
AcDbLine
10
45
20
70
11
45
21
180
0
LINE
5
D1
100
AcDbEntity
8
outline
6
ByLayer
62
256
370
-1
100
AcDbLine
10
45
20
180
11
155
21
180
0
LINE
5
D2
100
AcDbEntity
8
outline
6
ByLayer
62
256
370
-1
100
AcDbLine
10
155
20
180
11
155
21
70
0
LINE
5
D3
100
AcDbEntity
8
outline
6
ByLayer
62
256
370
-1
100
AcDbLine
10
155
20
70
11
45
21
70
0
DIMENSION
5
D4
100
AcDbEntity
8
dimension
6
ByLayer
62
256
370
-1
100
AcDbDimension
2
*D1
10
155
20
60
30
0
11
100
21
60
31
0
70
33
1
l
71
5
72
0
3
Standard
53
0
210
0
220
0
230
1
100
AcDbAlignedDimension
13
45
23
70
33
0
14
155
24
70
34
0
0
LINE
5
D5
100
AcDbEntity
8
outline
6
ByLayer
62
256
370
-1
100
AcDbLine
10
245
20
140
11
245
21
120
0
INSERT
5
D6
100
AcDbEntity
8
0
6
ByLayer
62
256
370
-1
100
AcDbBlockReference
2
Coords_SideView_0
10
245
20
10
30
0
41
1
42
1
43
0
50
0
70
1
71
1
44
0
45
0
0
LINE
5
D7
100
AcDbEntity
8
outline
6
ByLayer
62
256
370
-1
100
AcDbLine
10
245
20
120
11
355
21
120
0
LINE
5
D8
100
AcDbEntity
8
outline
6
ByLayer
62
256
370
-1
100
AcDbLine
10
355
20
120
11
355
21
140
0
LINE
5
D9
100
AcDbEntity
8
outline
6
ByLayer
62
256
370
-1
100
AcDbLine
10
355
20
140
11
245
21
140
0
INSERT
5
DA
100
AcDbEntity
8
0
6
ByLayer
62
256
370
-1
100
AcDbBlockReference
2
Basepoint
10
245
20
120
30
0
41
1
42
1
43
0
50
0
70
1
71
1
44
1
45
1
0
INSERT
5
DB
100
AcDbEntity
8
0
6
ByLayer
62
256
370
-1
100
AcDbBlockReference
2
Basepoint
10
45
20
70
30
0
41
1
42
1
43
0
50
0
70
1
71
1
44
1
45
1
0
DIMENSION
5
DC
100
AcDbEntity
8
dimension
6
ByLayer
62
256
370
-1
100
AcDbDimension
2
*D2
10
225
20
140
30
0
11
220
21
130
31
0
70
33
1
h
71
5
72
0
3
Standard
53
0
210
0
220
0
230
1
100
AcDbAlignedDimension
13
245
23
120
33
0
14
245
24
140
34
0
0
DIMENSION
5
DD
100
AcDbEntity
8
dimension
6
ByLayer
62
256
370
-1
100
AcDbDimension
2
*D3
10
23
20
70
30
0
11
15
21
125
31
0
70
33
1
g
71
5
72
0
3
Standard
53
0
210
0
220
0
230
1
100
AcDbAlignedDimension
13
45
23
180
33
0
14
45
24
70
34
0
0
ENDSEC
0
SECTION
2
OBJECTS
0
DICTIONARY
5
C
330
0
100
AcDbDictionary
281
1
3
ACAD_GROUP
350
D
0
DICTIONARY
5
D
330
C
100
AcDbDictionary
281
1
0
ENDSEC
0
EOF
